<mxfile host="app.diagrams.net" agent="Mozilla/5.0 (Windows NT 10.0; Win64; x64) AppleWebKit/537.36 (KHTML, like Gecko) Chrome/132.0.0.0 Safari/537.36" version="26.0.11">
  <diagram name="Page-1" id="4bd5d27a-524c-7e24-5d5f-89a86ee4fca1">
    <mxGraphModel dx="2868" dy="1476" grid="1" gridSize="10" guides="1" tooltips="1" connect="1" arrows="1" fold="1" page="1" pageScale="1" pageWidth="1100" pageHeight="850" background="none" math="0" shadow="0">
      <root>
        <mxCell id="0" />
        <mxCell id="1" parent="0" />
        <mxCell id="lmE3nsjhsvZmALT3HOkS-12" value="" style="verticalLabelPosition=bottom;html=1;verticalAlign=top;align=center;strokeWidth=1;shape=mxgraph.floorplan.doorLeft;rounded=0;shadow=0;comic=0;fontFamily=Verdana;fontSize=12;direction=north;flipH=1;" vertex="1" parent="1">
          <mxGeometry x="1289" y="842" width="90" height="91" as="geometry" />
        </mxCell>
        <mxCell id="lmE3nsjhsvZmALT3HOkS-10" value="" style="verticalLabelPosition=bottom;html=1;verticalAlign=top;align=center;strokeWidth=1;shape=mxgraph.floorplan.doorLeft;rounded=0;shadow=0;comic=0;fontFamily=Verdana;fontSize=12;direction=south;" vertex="1" parent="1">
          <mxGeometry x="1290" y="749" width="90" height="91" as="geometry" />
        </mxCell>
        <mxCell id="48ef80bc37b76060-46" value="" style="group" parent="1" vertex="1" connectable="0">
          <mxGeometry x="916" y="1372" width="80" height="70" as="geometry" />
        </mxCell>
        <mxCell id="48ef80bc37b76060-1" value="" style="verticalLabelPosition=bottom;html=1;verticalAlign=top;align=center;strokeWidth=1;shape=mxgraph.floorplan.office_chair;shadow=0;rounded=0;comic=0;fontFamily=Verdana;fontSize=12;" parent="48ef80bc37b76060-46" vertex="1">
          <mxGeometry x="20" width="40" height="43" as="geometry" />
        </mxCell>
        <mxCell id="48ef80bc37b76060-2" value="" style="shape=rect;shadow=0;rounded=0;comic=0;fontFamily=Verdana;fontSize=12;align=center;html=1;" parent="48ef80bc37b76060-46" vertex="1">
          <mxGeometry y="20" width="80" height="50" as="geometry" />
        </mxCell>
        <mxCell id="48ef80bc37b76060-3" value="" style="verticalLabelPosition=bottom;html=1;verticalAlign=top;align=center;strokeWidth=1;shape=mxgraph.floorplan.workstation;shadow=0;flipV=1;rounded=0;comic=0;fontFamily=Verdana;fontSize=12;" parent="48ef80bc37b76060-46" vertex="1">
          <mxGeometry x="15" y="30" width="50" height="40" as="geometry" />
        </mxCell>
        <mxCell id="48ef80bc37b76060-55" value="" style="group;rotation=90;" parent="1" vertex="1" connectable="0">
          <mxGeometry x="389" y="938" width="98" height="70" as="geometry" />
        </mxCell>
        <mxCell id="48ef80bc37b76060-56" value="" style="verticalLabelPosition=bottom;html=1;verticalAlign=top;align=center;strokeWidth=1;shape=mxgraph.floorplan.office_chair;shadow=0;rounded=0;comic=0;fontFamily=Verdana;fontSize=12;rotation=90;" parent="48ef80bc37b76060-55" vertex="1">
          <mxGeometry x="45.34" y="13.66" width="44.68" height="46" as="geometry" />
        </mxCell>
        <mxCell id="48ef80bc37b76060-57" value="" style="shape=rect;shadow=0;rounded=0;comic=0;fontFamily=Verdana;fontSize=12;align=center;html=1;rotation=90;" parent="48ef80bc37b76060-55" vertex="1">
          <mxGeometry x="-8.225" y="9" width="98" height="50" as="geometry" />
        </mxCell>
        <mxCell id="48ef80bc37b76060-58" value="" style="verticalLabelPosition=bottom;html=1;verticalAlign=top;align=center;strokeWidth=1;shape=mxgraph.floorplan.workstation;shadow=0;flipV=1;rounded=0;comic=0;fontFamily=Verdana;fontSize=12;rotation=90;" parent="48ef80bc37b76060-55" vertex="1">
          <mxGeometry x="13.11" y="12.89" width="48.85" height="41.78" as="geometry" />
        </mxCell>
        <mxCell id="48ef80bc37b76060-118" value="" style="shape=rect;shadow=0;rounded=0;comic=0;fontFamily=Verdana;fontSize=12;align=center;html=1;" parent="1" vertex="1">
          <mxGeometry x="1630" y="1030" width="50" height="407" as="geometry" />
        </mxCell>
        <mxCell id="48ef80bc37b76060-124" value="" style="verticalLabelPosition=bottom;html=1;verticalAlign=top;align=center;strokeWidth=1;shape=mxgraph.floorplan.doorRight;rounded=0;shadow=0;comic=0;fontFamily=Verdana;fontSize=12;" parent="1" vertex="1">
          <mxGeometry x="693" y="1250" width="80" height="85" as="geometry" />
        </mxCell>
        <mxCell id="48ef80bc37b76060-125" value="" style="verticalLabelPosition=bottom;html=1;verticalAlign=top;align=center;strokeWidth=1;shape=mxgraph.floorplan.doorLeft;rounded=0;shadow=0;comic=0;fontFamily=Verdana;fontSize=12;" parent="1" vertex="1">
          <mxGeometry x="796" y="1251" width="80" height="85" as="geometry" />
        </mxCell>
        <mxCell id="48ef80bc37b76060-126" value="" style="verticalLabelPosition=bottom;html=1;verticalAlign=top;align=center;strokeWidth=1;shape=mxgraph.floorplan.doorLeft;rounded=0;shadow=0;comic=0;fontFamily=Verdana;fontSize=12;" parent="1" vertex="1">
          <mxGeometry x="1244" y="1251" width="80" height="85" as="geometry" />
        </mxCell>
        <mxCell id="48ef80bc37b76060-127" value="" style="verticalLabelPosition=bottom;html=1;verticalAlign=top;align=center;strokeWidth=1;shape=mxgraph.floorplan.wallCorner;fillColor=#000000;rounded=0;shadow=0;comic=0;fontFamily=Verdana;fontSize=12;" parent="1" vertex="1">
          <mxGeometry x="393" y="243" width="100" height="385" as="geometry" />
        </mxCell>
        <mxCell id="48ef80bc37b76060-128" value="" style="verticalLabelPosition=bottom;html=1;verticalAlign=top;align=center;strokeWidth=1;shape=mxgraph.floorplan.wallU;fillColor=#000000;rounded=0;shadow=0;comic=0;fontFamily=Verdana;fontSize=12;rotation=90;" parent="1" vertex="1">
          <mxGeometry x="440" y="197.38" width="1205.25" height="1298.25" as="geometry" />
        </mxCell>
        <mxCell id="48ef80bc37b76060-136" value="" style="verticalLabelPosition=bottom;html=1;verticalAlign=top;align=center;strokeWidth=1;shape=mxgraph.floorplan.doorDouble;rounded=0;shadow=0;comic=0;fontFamily=Verdana;fontSize=12;rotation=-90;" parent="1" vertex="1">
          <mxGeometry x="358" y="666" width="160" height="85" as="geometry" />
        </mxCell>
        <mxCell id="48ef80bc37b76060-137" value="" style="verticalLabelPosition=bottom;html=1;verticalAlign=top;align=center;strokeWidth=1;shape=mxgraph.floorplan.wall;fillColor=#000000;rounded=0;shadow=0;comic=0;fontFamily=Verdana;fontSize=12;" parent="1" vertex="1">
          <mxGeometry x="394" y="1024" width="204" height="10" as="geometry" />
        </mxCell>
        <mxCell id="48ef80bc37b76060-138" value="" style="verticalLabelPosition=bottom;html=1;verticalAlign=top;align=center;strokeWidth=1;shape=mxgraph.floorplan.wall;fillColor=#000000;direction=south;rounded=0;shadow=0;comic=0;fontFamily=Verdana;fontSize=12;" parent="1" vertex="1">
          <mxGeometry x="593" y="912" width="10" height="246" as="geometry" />
        </mxCell>
        <mxCell id="48ef80bc37b76060-142" value="" style="verticalLabelPosition=bottom;html=1;verticalAlign=top;align=center;strokeWidth=1;shape=mxgraph.floorplan.wallCorner;fillColor=#000000;direction=south;rounded=0;shadow=0;comic=0;fontFamily=Verdana;fontSize=12;" parent="1" vertex="1">
          <mxGeometry x="398" y="814" width="205" height="17" as="geometry" />
        </mxCell>
        <mxCell id="48ef80bc37b76060-139" value="" style="verticalLabelPosition=bottom;html=1;verticalAlign=top;align=center;strokeWidth=1;shape=mxgraph.floorplan.doorLeft;rounded=0;shadow=0;comic=0;fontFamily=Verdana;fontSize=12;rotation=90;" parent="1" vertex="1">
          <mxGeometry x="517" y="829" width="80" height="85" as="geometry" />
        </mxCell>
        <mxCell id="48ef80bc37b76060-149" value="" style="verticalLabelPosition=bottom;html=1;verticalAlign=top;align=center;strokeWidth=1;shape=mxgraph.floorplan.wall;fillColor=#000000;rounded=0;shadow=0;comic=0;fontFamily=Verdana;fontSize=12;" parent="1" vertex="1">
          <mxGeometry x="600" y="1248" width="93" height="10" as="geometry" />
        </mxCell>
        <mxCell id="48ef80bc37b76060-150" value="" style="verticalLabelPosition=bottom;html=1;verticalAlign=top;align=center;strokeWidth=1;shape=mxgraph.floorplan.wall;fillColor=#000000;direction=south;rounded=0;shadow=0;comic=0;fontFamily=Verdana;fontSize=12;" parent="1" vertex="1">
          <mxGeometry x="593" y="1239" width="10" height="18" as="geometry" />
        </mxCell>
        <mxCell id="48ef80bc37b76060-151" value="" style="verticalLabelPosition=bottom;html=1;verticalAlign=top;align=center;strokeWidth=1;shape=mxgraph.floorplan.doorLeft;rounded=0;shadow=0;comic=0;fontFamily=Verdana;fontSize=12;rotation=90;flipV=0;flipH=1;direction=west;" parent="1" vertex="1">
          <mxGeometry x="597" y="1158" width="80" height="85" as="geometry" />
        </mxCell>
        <mxCell id="48ef80bc37b76060-156" value="" style="verticalLabelPosition=bottom;html=1;verticalAlign=top;align=center;strokeWidth=1;shape=mxgraph.floorplan.wall;fillColor=#000000;direction=south;rounded=0;shadow=0;comic=0;fontFamily=Verdana;fontSize=12;" parent="1" vertex="1">
          <mxGeometry x="393" y="789" width="10" height="664" as="geometry" />
        </mxCell>
        <mxCell id="48ef80bc37b76060-157" value="" style="verticalLabelPosition=bottom;html=1;verticalAlign=top;align=center;strokeWidth=1;shape=mxgraph.floorplan.wall;fillColor=#000000;direction=south;rounded=0;shadow=0;comic=0;fontFamily=Verdana;fontSize=12;" parent="1" vertex="1">
          <mxGeometry x="780" y="1257" width="10" height="191" as="geometry" />
        </mxCell>
        <mxCell id="48ef80bc37b76060-158" value="" style="verticalLabelPosition=bottom;html=1;verticalAlign=top;align=center;strokeWidth=1;shape=mxgraph.floorplan.wall;fillColor=#000000;rounded=0;shadow=0;comic=0;fontFamily=Verdana;fontSize=12;" parent="1" vertex="1">
          <mxGeometry x="774" y="1248" width="22" height="10" as="geometry" />
        </mxCell>
        <mxCell id="48ef80bc37b76060-160" value="" style="verticalLabelPosition=bottom;html=1;verticalAlign=top;align=center;strokeWidth=1;shape=mxgraph.floorplan.plant;rounded=0;shadow=0;comic=0;fontFamily=Verdana;fontSize=12;" parent="1" vertex="1">
          <mxGeometry x="723" y="1389" width="47" height="51" as="geometry" />
        </mxCell>
        <mxCell id="48ef80bc37b76060-161" value="" style="verticalLabelPosition=bottom;html=1;verticalAlign=top;align=center;strokeWidth=1;shape=mxgraph.floorplan.plant;rounded=0;shadow=0;comic=0;fontFamily=Verdana;fontSize=12;" parent="1" vertex="1">
          <mxGeometry x="940" y="1259" width="47" height="51" as="geometry" />
        </mxCell>
        <mxCell id="48ef80bc37b76060-162" value="" style="verticalLabelPosition=bottom;html=1;verticalAlign=top;align=center;strokeWidth=1;shape=mxgraph.floorplan.wall;fillColor=#000000;direction=south;rounded=0;shadow=0;comic=0;fontFamily=Verdana;fontSize=12;" parent="1" vertex="1">
          <mxGeometry x="1003" y="1257" width="10" height="191" as="geometry" />
        </mxCell>
        <mxCell id="48ef80bc37b76060-163" value="" style="verticalLabelPosition=bottom;html=1;verticalAlign=top;align=center;strokeWidth=1;shape=mxgraph.floorplan.wall;fillColor=#000000;rounded=0;shadow=0;comic=0;fontFamily=Verdana;fontSize=12;" parent="1" vertex="1">
          <mxGeometry x="876" y="1248" width="144" height="10" as="geometry" />
        </mxCell>
        <mxCell id="48ef80bc37b76060-164" value="" style="verticalLabelPosition=bottom;html=1;verticalAlign=top;align=center;strokeWidth=1;shape=mxgraph.floorplan.doorLeft;rounded=0;shadow=0;comic=0;fontFamily=Verdana;fontSize=12;" parent="1" vertex="1">
          <mxGeometry x="1020" y="1251" width="80" height="85" as="geometry" />
        </mxCell>
        <mxCell id="48ef80bc37b76060-165" value="" style="group" parent="1" vertex="1" connectable="0">
          <mxGeometry x="1143" y="1373" width="80" height="70" as="geometry" />
        </mxCell>
        <mxCell id="48ef80bc37b76060-4" value="" style="verticalLabelPosition=bottom;html=1;verticalAlign=top;align=center;strokeWidth=1;shape=mxgraph.floorplan.office_chair;shadow=0;rounded=0;comic=0;fontFamily=Verdana;fontSize=12;" parent="48ef80bc37b76060-165" vertex="1">
          <mxGeometry x="20" width="40" height="43" as="geometry" />
        </mxCell>
        <mxCell id="48ef80bc37b76060-5" value="" style="shape=rect;shadow=0;rounded=0;comic=0;fontFamily=Verdana;fontSize=12;align=center;html=1;" parent="48ef80bc37b76060-165" vertex="1">
          <mxGeometry y="20" width="80" height="50" as="geometry" />
        </mxCell>
        <mxCell id="48ef80bc37b76060-6" value="" style="verticalLabelPosition=bottom;html=1;verticalAlign=top;align=center;strokeWidth=1;shape=mxgraph.floorplan.workstation;shadow=0;flipV=1;rounded=0;comic=0;fontFamily=Verdana;fontSize=12;" parent="48ef80bc37b76060-165" vertex="1">
          <mxGeometry x="15" y="30" width="50" height="40" as="geometry" />
        </mxCell>
        <mxCell id="48ef80bc37b76060-166" value="" style="verticalLabelPosition=bottom;html=1;verticalAlign=top;align=center;strokeWidth=1;shape=mxgraph.floorplan.plant;rounded=0;shadow=0;comic=0;fontFamily=Verdana;fontSize=12;" parent="1" vertex="1">
          <mxGeometry x="1170" y="1259" width="47" height="51" as="geometry" />
        </mxCell>
        <mxCell id="48ef80bc37b76060-169" value="" style="verticalLabelPosition=bottom;html=1;verticalAlign=top;align=center;strokeWidth=1;shape=mxgraph.floorplan.wall;fillColor=#000000;direction=south;rounded=0;shadow=0;comic=0;fontFamily=Verdana;fontSize=12;" parent="1" vertex="1">
          <mxGeometry x="1228" y="1258" width="10" height="191" as="geometry" />
        </mxCell>
        <mxCell id="48ef80bc37b76060-170" value="" style="verticalLabelPosition=bottom;html=1;verticalAlign=top;align=center;strokeWidth=1;shape=mxgraph.floorplan.wall;fillColor=#000000;rounded=0;shadow=0;comic=0;fontFamily=Verdana;fontSize=12;" parent="1" vertex="1">
          <mxGeometry x="1100" y="1248" width="144" height="10" as="geometry" />
        </mxCell>
        <mxCell id="48ef80bc37b76060-171" value="" style="verticalLabelPosition=bottom;html=1;verticalAlign=top;align=center;strokeWidth=1;shape=mxgraph.floorplan.wall;fillColor=#000000;rounded=0;shadow=0;comic=0;fontFamily=Verdana;fontSize=12;" parent="1" vertex="1">
          <mxGeometry x="1324" y="1248" width="136" height="10" as="geometry" />
        </mxCell>
        <mxCell id="48ef80bc37b76060-174" value="" style="verticalLabelPosition=bottom;html=1;verticalAlign=top;align=center;strokeWidth=1;shape=mxgraph.floorplan.plant;rounded=0;shadow=0;comic=0;fontFamily=Verdana;fontSize=12;" parent="1" vertex="1">
          <mxGeometry x="1391" y="1258" width="47" height="51" as="geometry" />
        </mxCell>
        <mxCell id="48ef80bc37b76060-181" value="" style="verticalLabelPosition=bottom;html=1;verticalAlign=top;align=center;strokeWidth=1;shape=mxgraph.floorplan.plant;rounded=0;shadow=0;comic=0;fontFamily=Verdana;fontSize=12;" parent="1" vertex="1">
          <mxGeometry x="342" y="587.5" width="47" height="51" as="geometry" />
        </mxCell>
        <mxCell id="48ef80bc37b76060-258" value="" style="verticalLabelPosition=bottom;html=1;verticalAlign=top;align=center;strokeWidth=1;shape=mxgraph.floorplan.wallCorner;fillColor=#000000;direction=west;rounded=0;shadow=0;comic=0;fontFamily=Verdana;fontSize=12;" parent="1" vertex="1">
          <mxGeometry x="401" y="607" width="202" height="12" as="geometry" />
        </mxCell>
        <mxCell id="48ef80bc37b76060-260" value="" style="verticalLabelPosition=bottom;html=1;verticalAlign=top;align=center;strokeWidth=1;shape=mxgraph.floorplan.wall;fillColor=#000000;direction=south;rounded=0;shadow=0;comic=0;fontFamily=Verdana;fontSize=12;" parent="1" vertex="1">
          <mxGeometry x="593" y="247" width="10" height="279" as="geometry" />
        </mxCell>
        <mxCell id="48ef80bc37b76060-261" value="" style="verticalLabelPosition=bottom;html=1;verticalAlign=top;align=center;strokeWidth=1;shape=mxgraph.floorplan.doorLeft;rounded=0;shadow=0;comic=0;fontFamily=Verdana;fontSize=12;rotation=90;flipH=1;" parent="1" vertex="1">
          <mxGeometry x="518" y="524" width="80" height="85" as="geometry" />
        </mxCell>
        <mxCell id="48ef80bc37b76060-264" value="" style="verticalLabelPosition=bottom;html=1;verticalAlign=top;align=center;strokeWidth=1;shape=mxgraph.floorplan.wall;fillColor=#000000;rounded=0;shadow=0;comic=0;fontFamily=Verdana;fontSize=12;" parent="1" vertex="1">
          <mxGeometry x="603" y="483" width="212" height="10" as="geometry" />
        </mxCell>
        <mxCell id="48ef80bc37b76060-64" value="" style="verticalLabelPosition=bottom;html=1;verticalAlign=top;align=center;strokeWidth=1;shape=mxgraph.floorplan.office_chair;shadow=0;rounded=0;comic=0;fontFamily=Verdana;fontSize=12;rotation=180;" parent="1" vertex="1">
          <mxGeometry x="476" y="281" width="40" height="43" as="geometry" />
        </mxCell>
        <mxCell id="48ef80bc37b76060-65" value="" style="shape=rect;shadow=0;rounded=0;comic=0;fontFamily=Verdana;fontSize=12;align=center;html=1;rotation=180;" parent="1" vertex="1">
          <mxGeometry x="404" y="253" width="187" height="50" as="geometry" />
        </mxCell>
        <mxCell id="48ef80bc37b76060-66" value="" style="verticalLabelPosition=bottom;html=1;verticalAlign=top;align=center;strokeWidth=1;shape=mxgraph.floorplan.workstation;shadow=0;flipV=1;rounded=0;comic=0;fontFamily=Verdana;fontSize=12;rotation=180;" parent="1" vertex="1">
          <mxGeometry x="471" y="253" width="50" height="40" as="geometry" />
        </mxCell>
        <mxCell id="48ef80bc37b76060-266" value="" style="verticalLabelPosition=bottom;html=1;verticalAlign=top;align=center;strokeWidth=1;shape=mxgraph.floorplan.flat_tv;rounded=0;shadow=0;comic=0;fontFamily=Verdana;fontSize=12;rotation=-35;" parent="1" vertex="1">
          <mxGeometry x="402" y="274" width="70" height="10" as="geometry" />
        </mxCell>
        <mxCell id="48ef80bc37b76060-267" value="" style="verticalLabelPosition=bottom;html=1;verticalAlign=top;align=center;strokeWidth=1;shape=mxgraph.floorplan.flat_tv;rounded=0;shadow=0;comic=0;fontFamily=Verdana;fontSize=12;rotation=30;" parent="1" vertex="1">
          <mxGeometry x="523" y="275" width="70" height="10" as="geometry" />
        </mxCell>
        <mxCell id="48ef80bc37b76060-273" value="" style="group;rotation=-90;" parent="1" vertex="1" connectable="0">
          <mxGeometry x="344" y="477" width="191" height="71" as="geometry" />
        </mxCell>
        <mxCell id="48ef80bc37b76060-268" value="" style="verticalLabelPosition=bottom;html=1;verticalAlign=top;align=center;strokeWidth=1;shape=mxgraph.floorplan.office_chair;shadow=0;rounded=0;comic=0;fontFamily=Verdana;fontSize=12;rotation=90;" parent="48ef80bc37b76060-273" vertex="1">
          <mxGeometry x="90" y="16" width="40" height="43" as="geometry" />
        </mxCell>
        <mxCell id="48ef80bc37b76060-269" value="" style="shape=rect;shadow=0;rounded=0;comic=0;fontFamily=Verdana;fontSize=12;align=center;html=1;rotation=90;" parent="48ef80bc37b76060-273" vertex="1">
          <mxGeometry x="-8" y="11" width="187" height="50" as="geometry" />
        </mxCell>
        <mxCell id="48ef80bc37b76060-270" value="" style="verticalLabelPosition=bottom;html=1;verticalAlign=top;align=center;strokeWidth=1;shape=mxgraph.floorplan.workstation;shadow=0;flipV=1;rounded=0;comic=0;fontFamily=Verdana;fontSize=12;rotation=90;" parent="48ef80bc37b76060-273" vertex="1">
          <mxGeometry x="55" y="17" width="50" height="40" as="geometry" />
        </mxCell>
        <mxCell id="48ef80bc37b76060-271" value="" style="verticalLabelPosition=bottom;html=1;verticalAlign=top;align=center;strokeWidth=1;shape=mxgraph.floorplan.flat_tv;rounded=0;shadow=0;comic=0;fontFamily=Verdana;fontSize=12;rotation=-125;" parent="48ef80bc37b76060-273" vertex="1">
          <mxGeometry x="51" y="91" width="70" height="10" as="geometry" />
        </mxCell>
        <mxCell id="48ef80bc37b76060-272" value="" style="verticalLabelPosition=bottom;html=1;verticalAlign=top;align=center;strokeWidth=1;shape=mxgraph.floorplan.flat_tv;rounded=0;shadow=0;comic=0;fontFamily=Verdana;fontSize=12;rotation=-60;" parent="48ef80bc37b76060-273" vertex="1">
          <mxGeometry x="52" y="-30" width="70" height="10" as="geometry" />
        </mxCell>
        <mxCell id="48ef80bc37b76060-274" value="" style="verticalLabelPosition=bottom;html=1;verticalAlign=top;align=center;strokeWidth=1;shape=mxgraph.floorplan.plant;rounded=0;shadow=0;comic=0;fontFamily=Verdana;fontSize=12;" parent="1" vertex="1">
          <mxGeometry x="405" y="345" width="47" height="51" as="geometry" />
        </mxCell>
        <mxCell id="48ef80bc37b76060-276" value="" style="group;rotation=90;" parent="1" vertex="1" connectable="0">
          <mxGeometry x="1030" y="264.5" width="145" height="124" as="geometry" />
        </mxCell>
        <mxCell id="48ef80bc37b76060-107" value="" style="verticalLabelPosition=bottom;html=1;verticalAlign=top;align=center;strokeWidth=1;shape=mxgraph.floorplan.office_chair;shadow=0;rounded=0;comic=0;fontFamily=Verdana;fontSize=12;rotation=90;" parent="48ef80bc37b76060-276" vertex="1">
          <mxGeometry x="85.1875" y="16.82857142857143" width="36.25" height="38.08571428571428" as="geometry" />
        </mxCell>
        <mxCell id="48ef80bc37b76060-108" value="" style="verticalLabelPosition=bottom;html=1;verticalAlign=top;align=center;strokeWidth=1;shape=mxgraph.floorplan.office_chair;shadow=0;direction=west;rounded=0;comic=0;fontFamily=Verdana;fontSize=12;rotation=90;" parent="48ef80bc37b76060-276" vertex="1">
          <mxGeometry x="-2.71875" y="16.82857142857143" width="36.25" height="38.08571428571428" as="geometry" />
        </mxCell>
        <mxCell id="48ef80bc37b76060-111" value="" style="verticalLabelPosition=bottom;html=1;verticalAlign=top;align=center;strokeWidth=1;shape=mxgraph.floorplan.office_chair;shadow=0;rounded=0;comic=0;fontFamily=Verdana;fontSize=12;rotation=90;" parent="48ef80bc37b76060-276" vertex="1">
          <mxGeometry x="85.1875" y="69.97142857142858" width="36.25" height="38.08571428571428" as="geometry" />
        </mxCell>
        <mxCell id="48ef80bc37b76060-112" value="" style="verticalLabelPosition=bottom;html=1;verticalAlign=top;align=center;strokeWidth=1;shape=mxgraph.floorplan.office_chair;shadow=0;direction=west;rounded=0;comic=0;fontFamily=Verdana;fontSize=12;rotation=90;" parent="48ef80bc37b76060-276" vertex="1">
          <mxGeometry x="-2.71875" y="69.97142857142858" width="36.25" height="38.08571428571428" as="geometry" />
        </mxCell>
        <mxCell id="48ef80bc37b76060-113" value="" style="shape=rect;shadow=0;rounded=0;comic=0;fontFamily=Verdana;fontSize=12;align=center;html=1;rotation=90;" parent="48ef80bc37b76060-276" vertex="1">
          <mxGeometry x="-13.59375" y="17.714285714285715" width="145" height="88.57142857142857" as="geometry" />
        </mxCell>
        <mxCell id="48ef80bc37b76060-277" value="" style="verticalLabelPosition=bottom;html=1;verticalAlign=top;align=center;strokeWidth=1;shape=mxgraph.floorplan.doorDouble;rounded=0;shadow=0;comic=0;fontFamily=Verdana;fontSize=12;flipV=1;" parent="1" vertex="1">
          <mxGeometry x="816" y="405" width="160" height="85" as="geometry" />
        </mxCell>
        <mxCell id="48ef80bc37b76060-316" value="" style="verticalLabelPosition=bottom;html=1;verticalAlign=top;align=center;strokeWidth=1;shape=mxgraph.floorplan.doorRight;rounded=0;shadow=0;comic=0;fontFamily=Verdana;fontSize=12;flipV=1;direction=south;" parent="1" vertex="1">
          <mxGeometry x="1362" y="570" width="85" height="80" as="geometry" />
        </mxCell>
        <mxCell id="48ef80bc37b76060-318" value="" style="verticalLabelPosition=bottom;html=1;verticalAlign=top;align=center;strokeWidth=1;shape=mxgraph.floorplan.wall;fillColor=#000000;direction=south;rounded=0;shadow=0;comic=0;fontFamily=Verdana;fontSize=12;" parent="1" vertex="1">
          <mxGeometry x="1438" y="247" width="10" height="244" as="geometry" />
        </mxCell>
        <mxCell id="48ef80bc37b76060-324" value="" style="verticalLabelPosition=bottom;html=1;verticalAlign=top;align=center;strokeWidth=1;shape=mxgraph.floorplan.plant;rounded=0;shadow=0;comic=0;fontFamily=Verdana;fontSize=12;" parent="1" vertex="1">
          <mxGeometry x="1540" y="601" width="47" height="51" as="geometry" />
        </mxCell>
        <mxCell id="48ef80bc37b76060-325" value="" style="verticalLabelPosition=bottom;html=1;verticalAlign=top;align=center;strokeWidth=1;shape=mxgraph.floorplan.doorRight;rounded=0;shadow=0;comic=0;fontFamily=Verdana;fontSize=12;flipV=1;" parent="1" vertex="1">
          <mxGeometry x="1352" y="405" width="80" height="85" as="geometry" />
        </mxCell>
        <mxCell id="48ef80bc37b76060-326" value="" style="verticalLabelPosition=bottom;html=1;verticalAlign=top;align=center;strokeWidth=1;shape=mxgraph.floorplan.wall;fillColor=#000000;rounded=0;shadow=0;comic=0;fontFamily=Verdana;fontSize=12;" parent="1" vertex="1">
          <mxGeometry x="976" y="483" width="375" height="10" as="geometry" />
        </mxCell>
        <mxCell id="48ef80bc37b76060-327" value="" style="verticalLabelPosition=bottom;html=1;verticalAlign=top;align=center;strokeWidth=1;shape=mxgraph.floorplan.wall;fillColor=#000000;direction=south;rounded=0;shadow=0;comic=0;fontFamily=Verdana;fontSize=12;" parent="1" vertex="1">
          <mxGeometry x="1217" y="247" width="10" height="244" as="geometry" />
        </mxCell>
        <mxCell id="48ef80bc37b76060-328" value="" style="group;rotation=90;" parent="1" vertex="1" connectable="0">
          <mxGeometry x="1223" y="273" width="80" height="70" as="geometry" />
        </mxCell>
        <mxCell id="48ef80bc37b76060-329" value="" style="verticalLabelPosition=bottom;html=1;verticalAlign=top;align=center;strokeWidth=1;shape=mxgraph.floorplan.office_chair;shadow=0;rounded=0;comic=0;fontFamily=Verdana;fontSize=12;rotation=90;" parent="48ef80bc37b76060-328" vertex="1">
          <mxGeometry x="35" y="14" width="40" height="43" as="geometry" />
        </mxCell>
        <mxCell id="48ef80bc37b76060-330" value="" style="shape=rect;shadow=0;rounded=0;comic=0;fontFamily=Verdana;fontSize=12;align=center;html=1;rotation=90;" parent="48ef80bc37b76060-328" vertex="1">
          <mxGeometry x="-10" y="10" width="80" height="50" as="geometry" />
        </mxCell>
        <mxCell id="48ef80bc37b76060-331" value="" style="verticalLabelPosition=bottom;html=1;verticalAlign=top;align=center;strokeWidth=1;shape=mxgraph.floorplan.workstation;shadow=0;flipV=1;rounded=0;comic=0;fontFamily=Verdana;fontSize=12;rotation=90;" parent="48ef80bc37b76060-328" vertex="1">
          <mxGeometry y="15" width="50" height="40" as="geometry" />
        </mxCell>
        <mxCell id="48ef80bc37b76060-332" value="" style="verticalLabelPosition=bottom;html=1;verticalAlign=top;align=center;strokeWidth=1;shape=mxgraph.floorplan.dresser;rounded=0;shadow=0;comic=0;fontFamily=Verdana;fontSize=12;rotation=-90;direction=north;" parent="1" vertex="1">
          <mxGeometry x="1073.19" y="421.19" width="40" height="80.63" as="geometry" />
        </mxCell>
        <mxCell id="48ef80bc37b76060-333" value="" style="verticalLabelPosition=bottom;html=1;verticalAlign=top;align=center;strokeWidth=1;shape=mxgraph.floorplan.plant;rounded=0;shadow=0;comic=0;fontFamily=Verdana;fontSize=12;" parent="1" vertex="1">
          <mxGeometry x="1380" y="260" width="47" height="51" as="geometry" />
        </mxCell>
        <mxCell id="48ef80bc37b76060-339" value="" style="verticalLabelPosition=bottom;html=1;verticalAlign=top;align=center;strokeWidth=1;shape=mxgraph.floorplan.wall;fillColor=#000000;direction=west;rounded=0;shadow=0;comic=0;fontFamily=Verdana;fontSize=12;" parent="1" vertex="1">
          <mxGeometry x="1514" y="1020" width="176" height="10" as="geometry" />
        </mxCell>
        <mxCell id="4fd38086c27adbb9-1" value="" style="line;strokeWidth=4;html=1;perimeter=backbonePerimeter;points=[];outlineConnect=0;rounded=1;shadow=0;comic=0;fillColor=none;fontFamily=Verdana;fontSize=28;fontColor=#6881B3;align=center;strokeColor=#0066CC;" parent="1" vertex="1">
          <mxGeometry x="391" y="237" width="1304" height="10" as="geometry" />
        </mxCell>
        <mxCell id="4fd38086c27adbb9-3" value="" style="line;strokeWidth=4;direction=south;html=1;rounded=1;shadow=0;comic=0;labelBackgroundColor=#ffffff;fillColor=none;fontFamily=Verdana;fontSize=28;fontColor=#6881B3;strokeColor=#0066CC;" parent="1" vertex="1">
          <mxGeometry x="389" y="241" width="10" height="1220" as="geometry" />
        </mxCell>
        <mxCell id="4fd38086c27adbb9-4" value="" style="line;strokeWidth=4;direction=south;html=1;rounded=1;shadow=0;comic=0;labelBackgroundColor=#ffffff;fillColor=none;fontFamily=Verdana;fontSize=28;fontColor=#6881B3;strokeColor=#0066CC;" parent="1" vertex="1">
          <mxGeometry x="1688" y="243" width="10" height="1217" as="geometry" />
        </mxCell>
        <mxCell id="48ef80bc37b76060-7" value="" style="verticalLabelPosition=bottom;html=1;verticalAlign=top;align=center;strokeWidth=1;shape=mxgraph.floorplan.office_chair;fillColor=#ffffff;strokeColor=#000000;shadow=0;rounded=0;comic=0;fontFamily=Verdana;fontSize=12;" parent="1" vertex="1">
          <mxGeometry x="1387" y="1372" width="40" height="43" as="geometry" />
        </mxCell>
        <mxCell id="48ef80bc37b76060-8" value="" style="shape=rect;fillColor=#ffffff;strokeColor=#000000;shadow=0;rounded=0;comic=0;fontFamily=Verdana;fontSize=12;align=center;html=1;" parent="1" vertex="1">
          <mxGeometry x="1367" y="1392" width="80" height="50" as="geometry" />
        </mxCell>
        <mxCell id="48ef80bc37b76060-9" value="" style="verticalLabelPosition=bottom;html=1;verticalAlign=top;align=center;strokeWidth=1;shape=mxgraph.floorplan.workstation;fillColor=#ffffff;strokeColor=#000000;shadow=0;flipV=1;rounded=0;comic=0;fontFamily=Verdana;fontSize=12;" parent="1" vertex="1">
          <mxGeometry x="1382" y="1402" width="50" height="40" as="geometry" />
        </mxCell>
        <mxCell id="4fd38086c27adbb9-2" value="" style="line;strokeWidth=4;html=1;perimeter=backbonePerimeter;points=[];outlineConnect=0;rounded=1;shadow=0;comic=0;fillColor=none;fontFamily=Verdana;fontSize=28;fontColor=#6881B3;align=center;strokeColor=#0066CC;" parent="1" vertex="1">
          <mxGeometry x="395" y="1448" width="1299" height="21" as="geometry" />
        </mxCell>
        <mxCell id="48ef80bc37b76060-343" value="" style="verticalLabelPosition=bottom;html=1;verticalAlign=top;align=center;strokeWidth=1;shape=mxgraph.floorplan.toilet;rounded=0;shadow=0;comic=0;fontFamily=Verdana;fontSize=12;rotation=-90;direction=west;flipH=0;flipV=0;" parent="1" vertex="1">
          <mxGeometry x="1625" y="670.5" width="50" height="67" as="geometry" />
        </mxCell>
        <mxCell id="48ef80bc37b76060-345" value="" style="verticalLabelPosition=bottom;html=1;verticalAlign=top;align=center;strokeWidth=1;shape=mxgraph.floorplan.toilet;rounded=0;shadow=0;comic=0;fontFamily=Verdana;fontSize=12;rotation=-90;direction=west;flipH=0;flipV=0;" parent="1" vertex="1">
          <mxGeometry x="1625" y="760" width="50" height="67" as="geometry" />
        </mxCell>
        <mxCell id="48ef80bc37b76060-346" value="" style="verticalLabelPosition=bottom;html=1;verticalAlign=top;align=center;strokeWidth=1;shape=mxgraph.floorplan.wall;fillColor=#000000;rounded=0;shadow=0;comic=0;fontFamily=Verdana;fontSize=12;direction=west;flipH=0;flipV=0;" parent="1" vertex="1">
          <mxGeometry x="1514" y="741" width="178" height="10" as="geometry" />
        </mxCell>
        <mxCell id="48ef80bc37b76060-348" value="" style="verticalLabelPosition=bottom;html=1;verticalAlign=top;align=center;strokeWidth=1;shape=mxgraph.floorplan.doorLeft;rounded=0;shadow=0;comic=0;fontFamily=Verdana;fontSize=12;rotation=90;direction=west;flipH=0;flipV=0;" parent="1" vertex="1">
          <mxGeometry x="1516" y="661.5" width="80" height="85" as="geometry" />
        </mxCell>
        <mxCell id="48ef80bc37b76060-349" value="" style="verticalLabelPosition=bottom;html=1;verticalAlign=top;align=center;strokeWidth=1;shape=mxgraph.floorplan.doorLeft;rounded=0;shadow=0;comic=0;fontFamily=Verdana;fontSize=12;rotation=90;direction=west;flipH=0;flipV=0;" parent="1" vertex="1">
          <mxGeometry x="1516" y="751" width="80" height="85" as="geometry" />
        </mxCell>
        <mxCell id="48ef80bc37b76060-350" value="" style="verticalLabelPosition=bottom;html=1;verticalAlign=top;align=center;strokeWidth=1;shape=mxgraph.floorplan.wallCorner;fillColor=#000000;direction=west;rounded=0;shadow=0;comic=0;fontFamily=Verdana;fontSize=12;flipH=0;flipV=0;" parent="1" vertex="1">
          <mxGeometry x="1370" y="832" width="320" height="14" as="geometry" />
        </mxCell>
        <mxCell id="48ef80bc37b76060-354" value="" style="verticalLabelPosition=bottom;html=1;verticalAlign=top;align=center;strokeWidth=1;shape=mxgraph.floorplan.sink_2;rounded=0;shadow=0;comic=0;fontFamily=Verdana;fontSize=12;rotation=90;direction=west;flipH=0;flipV=0;" parent="1" vertex="1">
          <mxGeometry x="1378" y="666" width="40" height="35" as="geometry" />
        </mxCell>
        <mxCell id="48ef80bc37b76060-355" value="" style="verticalLabelPosition=bottom;html=1;verticalAlign=top;align=center;strokeWidth=1;shape=mxgraph.floorplan.sink_2;rounded=0;shadow=0;comic=0;fontFamily=Verdana;fontSize=12;rotation=90;direction=west;flipH=0;flipV=0;" parent="1" vertex="1">
          <mxGeometry x="1378" y="709" width="40" height="35" as="geometry" />
        </mxCell>
        <mxCell id="48ef80bc37b76060-360" value="" style="verticalLabelPosition=bottom;html=1;verticalAlign=top;align=center;strokeWidth=1;shape=mxgraph.floorplan.doorLeft;rounded=0;shadow=0;comic=0;fontFamily=Verdana;fontSize=12;rotation=90;direction=west;flipH=0;flipV=0;" parent="1" vertex="1">
          <mxGeometry x="1516" y="846" width="80" height="85" as="geometry" />
        </mxCell>
        <mxCell id="48ef80bc37b76060-362" value="" style="verticalLabelPosition=bottom;html=1;verticalAlign=top;align=center;strokeWidth=1;shape=mxgraph.floorplan.wall;fillColor=#000000;rounded=0;shadow=0;comic=0;fontFamily=Verdana;fontSize=12;direction=west;flipH=0;flipV=0;" parent="1" vertex="1">
          <mxGeometry x="1514" y="927" width="172" height="10" as="geometry" />
        </mxCell>
        <mxCell id="48ef80bc37b76060-364" value="" style="verticalLabelPosition=bottom;html=1;verticalAlign=top;align=center;strokeWidth=1;shape=mxgraph.floorplan.doorLeft;rounded=0;shadow=0;comic=0;fontFamily=Verdana;fontSize=12;rotation=90;direction=west;flipH=0;flipV=0;" parent="1" vertex="1">
          <mxGeometry x="1516" y="935" width="80" height="85" as="geometry" />
        </mxCell>
        <mxCell id="48ef80bc37b76060-367" value="" style="verticalLabelPosition=bottom;html=1;verticalAlign=top;align=center;strokeWidth=1;shape=mxgraph.floorplan.toilet;rounded=0;shadow=0;comic=0;fontFamily=Verdana;fontSize=12;rotation=-90;direction=west;flipH=0;flipV=0;" parent="1" vertex="1">
          <mxGeometry x="1625" y="948" width="50" height="67" as="geometry" />
        </mxCell>
        <mxCell id="48ef80bc37b76060-368" value="" style="verticalLabelPosition=bottom;html=1;verticalAlign=top;align=center;strokeWidth=1;shape=mxgraph.floorplan.toilet;rounded=0;shadow=0;comic=0;fontFamily=Verdana;fontSize=12;rotation=-90;direction=west;flipH=0;flipV=0;" parent="1" vertex="1">
          <mxGeometry x="1625" y="855" width="50" height="67" as="geometry" />
        </mxCell>
        <mxCell id="lmE3nsjhsvZmALT3HOkS-2" value="" style="verticalLabelPosition=bottom;html=1;verticalAlign=top;align=center;strokeWidth=1;shape=mxgraph.floorplan.wall;fillColor=#000000;rounded=0;shadow=0;comic=0;fontFamily=Verdana;fontSize=12;direction=west;flipH=0;flipV=0;" vertex="1" parent="1">
          <mxGeometry x="1514" y="652" width="176" height="10" as="geometry" />
        </mxCell>
        <mxCell id="lmE3nsjhsvZmALT3HOkS-3" value="" style="verticalLabelPosition=bottom;html=1;verticalAlign=top;align=center;shape=mxgraph.floorplan.wallCorner;fillColor=strokeColor;direction=north" vertex="1" parent="1">
          <mxGeometry x="1370" y="930" width="160" height="100" as="geometry" />
        </mxCell>
        <mxCell id="lmE3nsjhsvZmALT3HOkS-4" value="" style="verticalLabelPosition=bottom;html=1;verticalAlign=top;align=center;shape=mxgraph.floorplan.wallCorner;fillColor=strokeColor;direction=east;" vertex="1" parent="1">
          <mxGeometry x="1370" y="652" width="184" height="97" as="geometry" />
        </mxCell>
        <mxCell id="lmE3nsjhsvZmALT3HOkS-5" value="" style="verticalLabelPosition=bottom;html=1;verticalAlign=top;align=center;strokeWidth=1;shape=mxgraph.floorplan.sink_2;rounded=0;shadow=0;comic=0;fontFamily=Verdana;fontSize=12;rotation=90;direction=west;flipH=0;flipV=0;" vertex="1" parent="1">
          <mxGeometry x="1378.5" y="936.5" width="40" height="35" as="geometry" />
        </mxCell>
        <mxCell id="lmE3nsjhsvZmALT3HOkS-6" value="" style="verticalLabelPosition=bottom;html=1;verticalAlign=top;align=center;strokeWidth=1;shape=mxgraph.floorplan.sink_2;rounded=0;shadow=0;comic=0;fontFamily=Verdana;fontSize=12;rotation=90;direction=west;flipH=0;flipV=0;" vertex="1" parent="1">
          <mxGeometry x="1378.5" y="979.5" width="40" height="35" as="geometry" />
        </mxCell>
        <mxCell id="lmE3nsjhsvZmALT3HOkS-23" value="" style="verticalLabelPosition=bottom;html=1;verticalAlign=top;align=center;strokeWidth=1;shape=mxgraph.floorplan.wall;fillColor=#000000;direction=south;rounded=0;shadow=0;comic=0;fontFamily=Verdana;fontSize=12;" vertex="1" parent="1">
          <mxGeometry x="593" y="1248" width="10" height="191" as="geometry" />
        </mxCell>
        <mxCell id="lmE3nsjhsvZmALT3HOkS-44" value="" style="verticalLabelPosition=bottom;html=1;verticalAlign=top;align=center;shape=mxgraph.floorplan.office_chair;shadow=0;direction=north;" vertex="1" parent="1">
          <mxGeometry x="437" y="1321.5" width="43" height="40" as="geometry" />
        </mxCell>
        <mxCell id="lmE3nsjhsvZmALT3HOkS-45" value="" style="verticalLabelPosition=bottom;html=1;verticalAlign=top;align=center;shape=mxgraph.floorplan.office_chair;shadow=0;direction=east;" vertex="1" parent="1">
          <mxGeometry x="478" y="1136" width="40" height="43" as="geometry" />
        </mxCell>
        <mxCell id="lmE3nsjhsvZmALT3HOkS-46" value="" style="verticalLabelPosition=bottom;html=1;verticalAlign=top;align=center;shape=mxgraph.floorplan.office_chair;shadow=0;direction=south;" vertex="1" parent="1">
          <mxGeometry x="511" y="1170" width="43" height="40" as="geometry" />
        </mxCell>
        <mxCell id="lmE3nsjhsvZmALT3HOkS-47" value="" style="verticalLabelPosition=bottom;html=1;verticalAlign=top;align=center;shape=mxgraph.floorplan.office_chair;shadow=0;direction=north;" vertex="1" parent="1">
          <mxGeometry x="444" y="1170" width="43" height="40" as="geometry" />
        </mxCell>
        <mxCell id="lmE3nsjhsvZmALT3HOkS-48" value="" style="verticalLabelPosition=bottom;html=1;verticalAlign=top;align=center;shape=mxgraph.floorplan.office_chair;shadow=0;direction=south;" vertex="1" parent="1">
          <mxGeometry x="524" y="1219" width="43" height="40" as="geometry" />
        </mxCell>
        <mxCell id="lmE3nsjhsvZmALT3HOkS-49" value="" style="verticalLabelPosition=bottom;html=1;verticalAlign=top;align=center;shape=mxgraph.floorplan.office_chair;shadow=0;direction=west;" vertex="1" parent="1">
          <mxGeometry x="478" y="1368" width="40" height="43" as="geometry" />
        </mxCell>
        <mxCell id="lmE3nsjhsvZmALT3HOkS-50" value="" style="verticalLabelPosition=bottom;html=1;verticalAlign=top;align=center;shape=mxgraph.floorplan.office_chair;shadow=0;direction=south;" vertex="1" parent="1">
          <mxGeometry x="524" y="1270.5" width="43" height="40" as="geometry" />
        </mxCell>
        <mxCell id="lmE3nsjhsvZmALT3HOkS-51" value="" style="verticalLabelPosition=bottom;html=1;verticalAlign=top;align=center;shape=mxgraph.floorplan.office_chair;shadow=0;direction=north;" vertex="1" parent="1">
          <mxGeometry x="430" y="1219" width="43" height="40" as="geometry" />
        </mxCell>
        <mxCell id="lmE3nsjhsvZmALT3HOkS-52" value="" style="verticalLabelPosition=bottom;html=1;verticalAlign=top;align=center;shape=mxgraph.floorplan.office_chair;shadow=0;direction=south;" vertex="1" parent="1">
          <mxGeometry x="516" y="1321.5" width="43" height="40" as="geometry" />
        </mxCell>
        <mxCell id="lmE3nsjhsvZmALT3HOkS-53" value="" style="verticalLabelPosition=bottom;html=1;verticalAlign=top;align=center;shape=mxgraph.floorplan.office_chair;shadow=0;direction=north;" vertex="1" parent="1">
          <mxGeometry x="429.5" y="1270" width="43" height="40" as="geometry" />
        </mxCell>
        <mxCell id="lmE3nsjhsvZmALT3HOkS-54" value="" style="shape=ellipse;shadow=0;html=1;direction=south;" vertex="1" parent="1">
          <mxGeometry x="453" y="1157" width="90" height="232" as="geometry" />
        </mxCell>
        <mxCell id="lmE3nsjhsvZmALT3HOkS-55" value="" style="shape=rect;shadow=0;rounded=0;comic=0;fontFamily=Verdana;fontSize=12;align=center;html=1;" vertex="1" parent="1">
          <mxGeometry x="406" y="1034" width="182" height="50" as="geometry" />
        </mxCell>
        <mxCell id="lmE3nsjhsvZmALT3HOkS-56" value="" style="verticalLabelPosition=bottom;html=1;verticalAlign=top;align=center;strokeWidth=1;shape=mxgraph.floorplan.flat_tv;rounded=0;shadow=0;comic=0;fontFamily=Verdana;fontSize=12;rotation=180;direction=west;" vertex="1" parent="1">
          <mxGeometry x="425" y="1048" width="150" height="16" as="geometry" />
        </mxCell>
        <mxCell id="lmE3nsjhsvZmALT3HOkS-58" value="" style="verticalLabelPosition=bottom;html=1;verticalAlign=top;align=center;strokeWidth=1;shape=mxgraph.floorplan.plant;rounded=0;shadow=0;comic=0;fontFamily=Verdana;fontSize=12;" vertex="1" parent="1">
          <mxGeometry x="405" y="1390" width="47" height="51" as="geometry" />
        </mxCell>
        <mxCell id="lmE3nsjhsvZmALT3HOkS-59" value="" style="verticalLabelPosition=bottom;html=1;verticalAlign=top;align=center;strokeWidth=1;shape=mxgraph.floorplan.flat_tv;rounded=0;shadow=0;comic=0;fontFamily=Verdana;fontSize=12;rotation=174;direction=north;" vertex="1" parent="1">
          <mxGeometry x="1645.25" y="1041" width="20" height="180" as="geometry" />
        </mxCell>
        <mxCell id="lmE3nsjhsvZmALT3HOkS-61" value="" style="verticalLabelPosition=bottom;html=1;verticalAlign=top;align=center;shape=mxgraph.floorplan.couch;direction=north;" vertex="1" parent="1">
          <mxGeometry x="1460" y="1332" width="57" height="105.5" as="geometry" />
        </mxCell>
        <mxCell id="lmE3nsjhsvZmALT3HOkS-62" value="" style="verticalLabelPosition=bottom;html=1;verticalAlign=top;align=center;shape=mxgraph.floorplan.wall;fillColor=strokeColor;direction=south;" vertex="1" parent="1">
          <mxGeometry x="1450" y="1251" width="10" height="189" as="geometry" />
        </mxCell>
        <mxCell id="lmE3nsjhsvZmALT3HOkS-63" value="" style="verticalLabelPosition=bottom;html=1;verticalAlign=top;align=center;strokeWidth=1;shape=mxgraph.floorplan.flat_tv;rounded=0;shadow=0;comic=0;fontFamily=Verdana;fontSize=12;rotation=180;direction=north;" vertex="1" parent="1">
          <mxGeometry x="1645" y="1228" width="20" height="180" as="geometry" />
        </mxCell>
        <mxCell id="lmE3nsjhsvZmALT3HOkS-64" value="" style="verticalLabelPosition=bottom;html=1;verticalAlign=top;align=center;shape=mxgraph.floorplan.couch;direction=north;" vertex="1" parent="1">
          <mxGeometry x="1460" y="1227" width="57" height="101.5" as="geometry" />
        </mxCell>
        <mxCell id="lmE3nsjhsvZmALT3HOkS-65" value="" style="verticalLabelPosition=bottom;html=1;verticalAlign=top;align=center;shape=mxgraph.floorplan.couch;direction=north;" vertex="1" parent="1">
          <mxGeometry x="1460" y="1114" width="57" height="110" as="geometry" />
        </mxCell>
        <mxCell id="lmE3nsjhsvZmALT3HOkS-66" value="" style="verticalLabelPosition=bottom;html=1;verticalAlign=top;align=center;shape=mxgraph.floorplan.wall;fillColor=strokeColor;direction=south;" vertex="1" parent="1">
          <mxGeometry x="1450" y="1116" width="10" height="144" as="geometry" />
        </mxCell>
        <mxCell id="lmE3nsjhsvZmALT3HOkS-67" value="" style="verticalLabelPosition=bottom;html=1;verticalAlign=top;align=center;strokeWidth=1;shape=mxgraph.floorplan.doorLeft;rounded=0;shadow=0;comic=0;fontFamily=Verdana;fontSize=12;direction=south;" vertex="1" parent="1">
          <mxGeometry x="1375" y="1034" width="85" height="80" as="geometry" />
        </mxCell>
        <mxCell id="lmE3nsjhsvZmALT3HOkS-70" value="" style="verticalLabelPosition=bottom;html=1;verticalAlign=top;align=center;shape=mxgraph.floorplan.elevator;" vertex="1" parent="1">
          <mxGeometry x="930.75" y="762" width="170" height="154" as="geometry" />
        </mxCell>
        <mxCell id="lmE3nsjhsvZmALT3HOkS-71" value="" style="verticalLabelPosition=bottom;html=1;verticalAlign=top;align=center;shape=mxgraph.floorplan.stairs;direction=south;" vertex="1" parent="1">
          <mxGeometry x="1448" y="256" width="112" height="234" as="geometry" />
        </mxCell>
        <mxCell id="lmE3nsjhsvZmALT3HOkS-72" value="" style="verticalLabelPosition=bottom;html=1;verticalAlign=top;align=center;shape=mxgraph.floorplan.stairs;direction=north;" vertex="1" parent="1">
          <mxGeometry x="1560" y="256" width="120" height="234" as="geometry" />
        </mxCell>
        <mxCell id="lmE3nsjhsvZmALT3HOkS-73" value="" style="verticalLabelPosition=bottom;html=1;verticalAlign=top;align=center;shape=mxgraph.floorplan.wall;fillColor=strokeColor;direction=south;" vertex="1" parent="1">
          <mxGeometry x="1438" y="483" width="10" height="87" as="geometry" />
        </mxCell>
        <mxCell id="lmE3nsjhsvZmALT3HOkS-74" value="" style="verticalLabelPosition=bottom;html=1;verticalAlign=top;align=center;shape=mxgraph.floorplan.sink_double2;direction=west;" vertex="1" parent="1">
          <mxGeometry x="1137" y="444" width="80" height="35" as="geometry" />
        </mxCell>
        <mxCell id="lmE3nsjhsvZmALT3HOkS-75" value="" style="group;rotation=90;" vertex="1" connectable="0" parent="1">
          <mxGeometry x="656" y="266" width="145" height="124" as="geometry" />
        </mxCell>
        <mxCell id="lmE3nsjhsvZmALT3HOkS-76" value="" style="verticalLabelPosition=bottom;html=1;verticalAlign=top;align=center;strokeWidth=1;shape=mxgraph.floorplan.office_chair;shadow=0;rounded=0;comic=0;fontFamily=Verdana;fontSize=12;rotation=90;" vertex="1" parent="lmE3nsjhsvZmALT3HOkS-75">
          <mxGeometry x="85.1875" y="16.82857142857143" width="36.25" height="38.08571428571428" as="geometry" />
        </mxCell>
        <mxCell id="lmE3nsjhsvZmALT3HOkS-77" value="" style="verticalLabelPosition=bottom;html=1;verticalAlign=top;align=center;strokeWidth=1;shape=mxgraph.floorplan.office_chair;shadow=0;direction=west;rounded=0;comic=0;fontFamily=Verdana;fontSize=12;rotation=90;" vertex="1" parent="lmE3nsjhsvZmALT3HOkS-75">
          <mxGeometry x="-2.71875" y="16.82857142857143" width="36.25" height="38.08571428571428" as="geometry" />
        </mxCell>
        <mxCell id="lmE3nsjhsvZmALT3HOkS-78" value="" style="verticalLabelPosition=bottom;html=1;verticalAlign=top;align=center;strokeWidth=1;shape=mxgraph.floorplan.office_chair;shadow=0;rounded=0;comic=0;fontFamily=Verdana;fontSize=12;rotation=90;" vertex="1" parent="lmE3nsjhsvZmALT3HOkS-75">
          <mxGeometry x="85.1875" y="69.97142857142858" width="36.25" height="38.08571428571428" as="geometry" />
        </mxCell>
        <mxCell id="lmE3nsjhsvZmALT3HOkS-79" value="" style="verticalLabelPosition=bottom;html=1;verticalAlign=top;align=center;strokeWidth=1;shape=mxgraph.floorplan.office_chair;shadow=0;direction=west;rounded=0;comic=0;fontFamily=Verdana;fontSize=12;rotation=90;" vertex="1" parent="lmE3nsjhsvZmALT3HOkS-75">
          <mxGeometry x="-2.71875" y="69.97142857142858" width="36.25" height="38.08571428571428" as="geometry" />
        </mxCell>
        <mxCell id="lmE3nsjhsvZmALT3HOkS-80" value="" style="shape=rect;shadow=0;rounded=0;comic=0;fontFamily=Verdana;fontSize=12;align=center;html=1;rotation=90;" vertex="1" parent="lmE3nsjhsvZmALT3HOkS-75">
          <mxGeometry x="-13.59375" y="17.714285714285715" width="145" height="88.57142857142857" as="geometry" />
        </mxCell>
        <mxCell id="lmE3nsjhsvZmALT3HOkS-81" value="" style="verticalLabelPosition=bottom;html=1;verticalAlign=top;align=center;shape=mxgraph.floorplan.sink_double2;direction=west;" vertex="1" parent="1">
          <mxGeometry x="605" y="445" width="80" height="35" as="geometry" />
        </mxCell>
        <mxCell id="lmE3nsjhsvZmALT3HOkS-82" value="" style="verticalLabelPosition=bottom;html=1;verticalAlign=top;align=center;strokeWidth=1;shape=mxgraph.floorplan.dresser;rounded=0;shadow=0;comic=0;fontFamily=Verdana;fontSize=12;rotation=-90;direction=north;" vertex="1" parent="1">
          <mxGeometry x="995.75" y="424.25" width="40" height="75" as="geometry" />
        </mxCell>
        <mxCell id="lmE3nsjhsvZmALT3HOkS-83" value="" style="verticalLabelPosition=bottom;html=1;verticalAlign=top;align=center;strokeWidth=1;shape=mxgraph.floorplan.dresser;rounded=0;shadow=0;comic=0;fontFamily=Verdana;fontSize=12;rotation=-90;direction=north;" vertex="1" parent="1">
          <mxGeometry x="764.25" y="432.25" width="40" height="59.5" as="geometry" />
        </mxCell>
        <mxCell id="lmE3nsjhsvZmALT3HOkS-84" value="" style="verticalLabelPosition=bottom;html=1;verticalAlign=top;align=center;strokeWidth=1;shape=mxgraph.floorplan.dresser;rounded=0;shadow=0;comic=0;fontFamily=Verdana;fontSize=12;rotation=-90;direction=north;" vertex="1" parent="1">
          <mxGeometry x="701.85" y="427.17" width="40" height="69.68" as="geometry" />
        </mxCell>
        <mxCell id="lmE3nsjhsvZmALT3HOkS-86" value="" style="group;rotation=0;" vertex="1" connectable="0" parent="1">
          <mxGeometry x="399" y="831" width="80" height="70" as="geometry" />
        </mxCell>
        <mxCell id="lmE3nsjhsvZmALT3HOkS-87" value="" style="verticalLabelPosition=bottom;html=1;verticalAlign=top;align=center;strokeWidth=1;shape=mxgraph.floorplan.office_chair;shadow=0;rounded=0;comic=0;fontFamily=Verdana;fontSize=12;rotation=90;direction=east;" vertex="1" parent="lmE3nsjhsvZmALT3HOkS-86">
          <mxGeometry x="35" y="20" width="47" height="42" as="geometry" />
        </mxCell>
        <mxCell id="lmE3nsjhsvZmALT3HOkS-88" value="" style="shape=rect;shadow=0;rounded=0;comic=0;fontFamily=Verdana;fontSize=12;align=center;html=1;rotation=90;" vertex="1" parent="lmE3nsjhsvZmALT3HOkS-86">
          <mxGeometry x="-20" y="20" width="100" height="50" as="geometry" />
        </mxCell>
        <mxCell id="lmE3nsjhsvZmALT3HOkS-89" value="" style="verticalLabelPosition=bottom;html=1;verticalAlign=top;align=center;strokeWidth=1;shape=mxgraph.floorplan.workstation;shadow=0;flipV=1;rounded=0;comic=0;fontFamily=Verdana;fontSize=12;rotation=90;" vertex="1" parent="lmE3nsjhsvZmALT3HOkS-86">
          <mxGeometry x="2.79" y="15.97" width="47.07" height="41" as="geometry" />
        </mxCell>
        <mxCell id="lmE3nsjhsvZmALT3HOkS-110" value="" style="verticalLabelPosition=bottom;html=1;verticalAlign=top;align=center;strokeWidth=1;shape=mxgraph.floorplan.plant;rounded=0;shadow=0;comic=0;fontFamily=Verdana;fontSize=12;" vertex="1" parent="1">
          <mxGeometry x="342" y="797" width="47" height="51" as="geometry" />
        </mxCell>
        <mxCell id="lmE3nsjhsvZmALT3HOkS-111" value="" style="verticalLabelPosition=bottom;html=1;verticalAlign=top;align=center;strokeWidth=1;shape=mxgraph.floorplan.plant;rounded=0;shadow=0;comic=0;fontFamily=Verdana;fontSize=12;" vertex="1" parent="1">
          <mxGeometry x="293" y="587.5" width="47" height="51" as="geometry" />
        </mxCell>
        <mxCell id="lmE3nsjhsvZmALT3HOkS-112" value="" style="verticalLabelPosition=bottom;html=1;verticalAlign=top;align=center;strokeWidth=1;shape=mxgraph.floorplan.plant;rounded=0;shadow=0;comic=0;fontFamily=Verdana;fontSize=12;" vertex="1" parent="1">
          <mxGeometry x="243" y="587.5" width="47" height="51" as="geometry" />
        </mxCell>
        <mxCell id="lmE3nsjhsvZmALT3HOkS-113" value="" style="verticalLabelPosition=bottom;html=1;verticalAlign=top;align=center;strokeWidth=1;shape=mxgraph.floorplan.plant;rounded=0;shadow=0;comic=0;fontFamily=Verdana;fontSize=12;" vertex="1" parent="1">
          <mxGeometry x="193" y="587.5" width="47" height="51" as="geometry" />
        </mxCell>
        <mxCell id="lmE3nsjhsvZmALT3HOkS-114" value="" style="verticalLabelPosition=bottom;html=1;verticalAlign=top;align=center;strokeWidth=1;shape=mxgraph.floorplan.plant;rounded=0;shadow=0;comic=0;fontFamily=Verdana;fontSize=12;" vertex="1" parent="1">
          <mxGeometry x="143" y="587.5" width="47" height="51" as="geometry" />
        </mxCell>
        <mxCell id="lmE3nsjhsvZmALT3HOkS-115" value="" style="verticalLabelPosition=bottom;html=1;verticalAlign=top;align=center;strokeWidth=1;shape=mxgraph.floorplan.plant;rounded=0;shadow=0;comic=0;fontFamily=Verdana;fontSize=12;" vertex="1" parent="1">
          <mxGeometry x="93" y="587.5" width="47" height="51" as="geometry" />
        </mxCell>
        <mxCell id="lmE3nsjhsvZmALT3HOkS-116" value="" style="verticalLabelPosition=bottom;html=1;verticalAlign=top;align=center;strokeWidth=1;shape=mxgraph.floorplan.plant;rounded=0;shadow=0;comic=0;fontFamily=Verdana;fontSize=12;" vertex="1" parent="1">
          <mxGeometry x="45" y="587.5" width="47" height="51" as="geometry" />
        </mxCell>
        <mxCell id="lmE3nsjhsvZmALT3HOkS-117" value="" style="verticalLabelPosition=bottom;html=1;verticalAlign=top;align=center;strokeWidth=1;shape=mxgraph.floorplan.plant;rounded=0;shadow=0;comic=0;fontFamily=Verdana;fontSize=12;" vertex="1" parent="1">
          <mxGeometry y="587.5" width="47" height="51" as="geometry" />
        </mxCell>
        <mxCell id="lmE3nsjhsvZmALT3HOkS-118" value="" style="verticalLabelPosition=bottom;html=1;verticalAlign=top;align=center;strokeWidth=1;shape=mxgraph.floorplan.plant;rounded=0;shadow=0;comic=0;fontFamily=Verdana;fontSize=12;" vertex="1" parent="1">
          <mxGeometry x="293" y="797" width="47" height="51" as="geometry" />
        </mxCell>
        <mxCell id="lmE3nsjhsvZmALT3HOkS-119" value="" style="verticalLabelPosition=bottom;html=1;verticalAlign=top;align=center;strokeWidth=1;shape=mxgraph.floorplan.plant;rounded=0;shadow=0;comic=0;fontFamily=Verdana;fontSize=12;" vertex="1" parent="1">
          <mxGeometry x="245" y="797" width="47" height="51" as="geometry" />
        </mxCell>
        <mxCell id="lmE3nsjhsvZmALT3HOkS-120" value="" style="verticalLabelPosition=bottom;html=1;verticalAlign=top;align=center;strokeWidth=1;shape=mxgraph.floorplan.plant;rounded=0;shadow=0;comic=0;fontFamily=Verdana;fontSize=12;" vertex="1" parent="1">
          <mxGeometry x="196" y="797" width="47" height="51" as="geometry" />
        </mxCell>
        <mxCell id="lmE3nsjhsvZmALT3HOkS-121" value="" style="verticalLabelPosition=bottom;html=1;verticalAlign=top;align=center;strokeWidth=1;shape=mxgraph.floorplan.plant;rounded=0;shadow=0;comic=0;fontFamily=Verdana;fontSize=12;" vertex="1" parent="1">
          <mxGeometry x="149" y="797" width="47" height="51" as="geometry" />
        </mxCell>
        <mxCell id="lmE3nsjhsvZmALT3HOkS-122" value="" style="verticalLabelPosition=bottom;html=1;verticalAlign=top;align=center;strokeWidth=1;shape=mxgraph.floorplan.plant;rounded=0;shadow=0;comic=0;fontFamily=Verdana;fontSize=12;" vertex="1" parent="1">
          <mxGeometry x="100" y="797" width="47" height="51" as="geometry" />
        </mxCell>
        <mxCell id="lmE3nsjhsvZmALT3HOkS-123" value="" style="verticalLabelPosition=bottom;html=1;verticalAlign=top;align=center;strokeWidth=1;shape=mxgraph.floorplan.plant;rounded=0;shadow=0;comic=0;fontFamily=Verdana;fontSize=12;" vertex="1" parent="1">
          <mxGeometry x="51" y="797" width="47" height="51" as="geometry" />
        </mxCell>
        <mxCell id="lmE3nsjhsvZmALT3HOkS-124" value="" style="verticalLabelPosition=bottom;html=1;verticalAlign=top;align=center;strokeWidth=1;shape=mxgraph.floorplan.plant;rounded=0;shadow=0;comic=0;fontFamily=Verdana;fontSize=12;" vertex="1" parent="1">
          <mxGeometry x="2" y="797" width="47" height="51" as="geometry" />
        </mxCell>
        <mxCell id="lmE3nsjhsvZmALT3HOkS-126" value="" style="verticalLabelPosition=bottom;html=1;verticalAlign=top;align=center;shape=mxgraph.floorplan.desk_corner;direction=north;" vertex="1" parent="1">
          <mxGeometry x="603" y="1340" width="97" height="97" as="geometry" />
        </mxCell>
        <mxCell id="lmE3nsjhsvZmALT3HOkS-128" value="" style="verticalLabelPosition=bottom;html=1;verticalAlign=top;align=center;shape=mxgraph.floorplan.water_cooler;" vertex="1" parent="1">
          <mxGeometry x="353" y="760" width="40" height="40" as="geometry" />
        </mxCell>
        <mxCell id="lmE3nsjhsvZmALT3HOkS-130" value="" style="verticalLabelPosition=bottom;html=1;verticalAlign=top;align=center;shape=mxgraph.floorplan.water_cooler;" vertex="1" parent="1">
          <mxGeometry x="563" y="619" width="40" height="40" as="geometry" />
        </mxCell>
        <mxCell id="lmE3nsjhsvZmALT3HOkS-131" value="" style="verticalLabelPosition=bottom;html=1;verticalAlign=top;align=center;shape=mxgraph.floorplan.water_cooler;" vertex="1" parent="1">
          <mxGeometry x="1327" y="990" width="40" height="40" as="geometry" />
        </mxCell>
        <mxCell id="lmE3nsjhsvZmALT3HOkS-132" value="" style="verticalLabelPosition=bottom;html=1;verticalAlign=top;align=center;shape=mxgraph.floorplan.water_cooler;" vertex="1" parent="1">
          <mxGeometry x="1640" y="610" width="40" height="40" as="geometry" />
        </mxCell>
        <mxCell id="lmE3nsjhsvZmALT3HOkS-133" value="" style="verticalLabelPosition=bottom;html=1;verticalAlign=top;align=center;shape=mxgraph.floorplan.water_cooler;" vertex="1" parent="1">
          <mxGeometry x="1328" y="652" width="40" height="40" as="geometry" />
        </mxCell>
        <mxCell id="lmE3nsjhsvZmALT3HOkS-134" value="" style="verticalLabelPosition=bottom;html=1;verticalAlign=top;align=center;shape=mxgraph.floorplan.water_cooler;" vertex="1" parent="1">
          <mxGeometry x="1227" y="444" width="40" height="40" as="geometry" />
        </mxCell>
        <mxCell id="lmE3nsjhsvZmALT3HOkS-136" value="" style="verticalLabelPosition=bottom;html=1;verticalAlign=top;align=center;shape=mxgraph.floorplan.water_cooler;" vertex="1" parent="1">
          <mxGeometry x="600" y="253" width="40" height="40" as="geometry" />
        </mxCell>
        <mxCell id="lmE3nsjhsvZmALT3HOkS-137" value="" style="verticalLabelPosition=bottom;html=1;verticalAlign=top;align=center;shape=mxgraph.floorplan.water_cooler;" vertex="1" parent="1">
          <mxGeometry x="553" y="356" width="40" height="40" as="geometry" />
        </mxCell>
        <mxCell id="lmE3nsjhsvZmALT3HOkS-138" value="" style="verticalLabelPosition=bottom;html=1;verticalAlign=top;align=center;shape=mxgraph.floorplan.water_cooler;" vertex="1" parent="1">
          <mxGeometry x="550" y="980" width="40" height="40" as="geometry" />
        </mxCell>
        <mxCell id="lmE3nsjhsvZmALT3HOkS-139" value="" style="verticalLabelPosition=bottom;html=1;verticalAlign=top;align=center;shape=mxgraph.floorplan.water_cooler;" vertex="1" parent="1">
          <mxGeometry x="1013" y="1400" width="40" height="40" as="geometry" />
        </mxCell>
        <mxCell id="lmE3nsjhsvZmALT3HOkS-140" value="" style="verticalLabelPosition=bottom;html=1;verticalAlign=top;align=center;shape=mxgraph.floorplan.water_cooler;" vertex="1" parent="1">
          <mxGeometry x="1238" y="1395.5" width="40" height="40" as="geometry" />
        </mxCell>
        <mxCell id="lmE3nsjhsvZmALT3HOkS-141" value="" style="verticalLabelPosition=bottom;html=1;verticalAlign=top;align=center;shape=mxgraph.floorplan.water_cooler;" vertex="1" parent="1">
          <mxGeometry x="790" y="1397.5" width="40" height="40" as="geometry" />
        </mxCell>
        <mxCell id="lmE3nsjhsvZmALT3HOkS-142" value="" style="verticalLabelPosition=bottom;html=1;verticalAlign=top;align=center;shape=mxgraph.floorplan.water_cooler;" vertex="1" parent="1">
          <mxGeometry x="603" y="1260" width="40" height="40" as="geometry" />
        </mxCell>
        <mxCell id="lmE3nsjhsvZmALT3HOkS-143" value="" style="verticalLabelPosition=bottom;html=1;verticalAlign=top;align=center;shape=mxgraph.floorplan.water_cooler;" vertex="1" parent="1">
          <mxGeometry x="553" y="1397.5" width="40" height="40" as="geometry" />
        </mxCell>
        <mxCell id="lmE3nsjhsvZmALT3HOkS-144" value="" style="verticalLabelPosition=bottom;html=1;verticalAlign=top;align=center;shape=mxgraph.floorplan.water_cooler;" vertex="1" parent="1">
          <mxGeometry x="1553" y="1397" width="40" height="40" as="geometry" />
        </mxCell>
        <mxCell id="lmE3nsjhsvZmALT3HOkS-147" value="" style="endArrow=none;dashed=1;html=1;rounded=0;exitX=0.757;exitY=-0.5;exitDx=0;exitDy=0;exitPerimeter=0;entryX=0.99;entryY=0.8;entryDx=0;entryDy=0;entryPerimeter=0;fontSize=11;spacing=2;arcSize=20;labelBorderColor=none;fillColor=#76608a;strokeColor=#432D57;startSize=6;endSize=6;jumpSize=6;strokeWidth=6;" edge="1" parent="1" target="48ef80bc37b76060-137">
          <mxGeometry width="50" height="50" relative="1" as="geometry">
            <mxPoint x="575.005" y="1415" as="sourcePoint" />
            <mxPoint x="713.0290973663858" y="1180.88" as="targetPoint" />
          </mxGeometry>
        </mxCell>
        <mxCell id="lmE3nsjhsvZmALT3HOkS-148" value="" style="endArrow=none;dashed=1;html=1;rounded=0;exitX=0.757;exitY=-0.5;exitDx=0;exitDy=0;exitPerimeter=0;fontSize=11;spacing=2;arcSize=20;labelBorderColor=none;fillColor=#76608a;strokeColor=#432D57;startSize=6;endSize=6;jumpSize=6;strokeWidth=6;entryX=0.992;entryY=0.993;entryDx=0;entryDy=0;entryPerimeter=0;" edge="1" parent="1" target="48ef80bc37b76060-128">
          <mxGeometry width="50" height="50" relative="1" as="geometry">
            <mxPoint x="575" y="1415" as="sourcePoint" />
            <mxPoint x="276.3185662057251" y="1785.13" as="targetPoint" />
          </mxGeometry>
        </mxCell>
        <mxCell id="lmE3nsjhsvZmALT3HOkS-149" value="" style="endArrow=none;dashed=1;html=1;rounded=0;exitX=0.311;exitY=0.7;exitDx=0;exitDy=0;exitPerimeter=0;entryX=0.475;entryY=0.525;entryDx=0;entryDy=0;entryPerimeter=0;fontSize=11;spacing=2;arcSize=20;labelBorderColor=none;fillColor=#d80073;strokeColor=#A50040;startSize=6;endSize=6;jumpSize=6;strokeWidth=6;" edge="1" parent="1" source="4fd38086c27adbb9-3" target="lmE3nsjhsvZmALT3HOkS-130">
          <mxGeometry width="50" height="50" relative="1" as="geometry">
            <mxPoint x="563" y="1014" as="sourcePoint" />
            <mxPoint x="583.995" y="631" as="targetPoint" />
          </mxGeometry>
        </mxCell>
        <mxCell id="lmE3nsjhsvZmALT3HOkS-150" value="" style="endArrow=none;dashed=1;html=1;rounded=0;exitX=0.757;exitY=-0.5;exitDx=0;exitDy=0;exitPerimeter=0;fontSize=11;spacing=2;arcSize=20;labelBorderColor=none;fillColor=#d80073;strokeColor=#A50040;startSize=6;endSize=6;jumpSize=6;strokeWidth=6;entryX=0.054;entryY=0.013;entryDx=0;entryDy=0;entryPerimeter=0;" edge="1" parent="1" target="lmE3nsjhsvZmALT3HOkS-70">
          <mxGeometry width="50" height="50" relative="1" as="geometry">
            <mxPoint x="584.01" y="643" as="sourcePoint" />
            <mxPoint x="605.005" y="260" as="targetPoint" />
          </mxGeometry>
        </mxCell>
        <mxCell id="lmE3nsjhsvZmALT3HOkS-151" value="" style="endArrow=none;dashed=1;html=1;rounded=0;fontSize=11;spacing=2;arcSize=20;labelBorderColor=none;fillColor=#008a00;strokeColor=#005700;startSize=6;endSize=6;jumpSize=6;strokeWidth=6;exitX=0.986;exitY=0;exitDx=0;exitDy=0;exitPerimeter=0;" edge="1" parent="1" source="48ef80bc37b76060-170">
          <mxGeometry width="50" height="50" relative="1" as="geometry">
            <mxPoint x="1092.75" y="666.0030362308858" as="sourcePoint" />
            <mxPoint x="1351" y="672.69" as="targetPoint" />
          </mxGeometry>
        </mxCell>
        <mxCell id="lmE3nsjhsvZmALT3HOkS-152" value="" style="endArrow=none;dashed=1;html=1;rounded=0;exitX=0.757;exitY=-0.5;exitDx=0;exitDy=0;exitPerimeter=0;fontSize=11;spacing=2;arcSize=20;labelBorderColor=none;fillColor=#008a00;strokeColor=#005700;startSize=6;endSize=6;jumpSize=6;strokeWidth=6;entryX=0.645;entryY=0.9;entryDx=0;entryDy=0;entryPerimeter=0;" edge="1" parent="1" target="48ef80bc37b76060-326">
          <mxGeometry width="50" height="50" relative="1" as="geometry">
            <mxPoint x="1349.01" y="670.5" as="sourcePoint" />
            <mxPoint x="1370.0049999999999" y="287.5" as="targetPoint" />
          </mxGeometry>
        </mxCell>
        <mxCell id="lmE3nsjhsvZmALT3HOkS-153" value="" style="endArrow=none;dashed=1;html=1;rounded=0;entryX=0.99;entryY=0.8;entryDx=0;entryDy=0;entryPerimeter=0;fontSize=11;spacing=2;arcSize=20;labelBorderColor=none;fillColor=#008a00;strokeColor=#005700;startSize=6;endSize=6;jumpSize=6;strokeWidth=6;" edge="1" parent="1">
          <mxGeometry width="50" height="50" relative="1" as="geometry">
            <mxPoint x="940" y="760" as="sourcePoint" />
            <mxPoint x="1352.0049999999999" y="670.5" as="targetPoint" />
          </mxGeometry>
        </mxCell>
        <mxCell id="lmE3nsjhsvZmALT3HOkS-154" value="" style="endArrow=none;dashed=1;html=1;rounded=0;entryX=0.99;entryY=0.8;entryDx=0;entryDy=0;entryPerimeter=0;fontSize=11;spacing=2;arcSize=20;labelBorderColor=none;fillColor=#008a00;strokeColor=#005700;startSize=6;endSize=6;jumpSize=6;strokeWidth=6;exitX=0.972;exitY=0.987;exitDx=0;exitDy=0;exitPerimeter=0;" edge="1" parent="1" source="lmE3nsjhsvZmALT3HOkS-70">
          <mxGeometry width="50" height="50" relative="1" as="geometry">
            <mxPoint x="1328" y="1049" as="sourcePoint" />
            <mxPoint x="1348.995" y="666" as="targetPoint" />
          </mxGeometry>
        </mxCell>
        <mxCell id="lmE3nsjhsvZmALT3HOkS-155" value="" style="endArrow=none;dashed=1;html=1;rounded=0;entryX=0.99;entryY=0.8;entryDx=0;entryDy=0;entryPerimeter=0;fontSize=11;spacing=2;arcSize=20;labelBorderColor=none;fillColor=#d80073;strokeColor=#A50040;startSize=6;endSize=6;jumpSize=6;strokeWidth=6;" edge="1" parent="1">
          <mxGeometry width="50" height="50" relative="1" as="geometry">
            <mxPoint x="930" y="920" as="sourcePoint" />
            <mxPoint x="583.495" y="637" as="targetPoint" />
          </mxGeometry>
        </mxCell>
        <mxCell id="lmE3nsjhsvZmALT3HOkS-156" value="" style="endArrow=none;dashed=1;html=1;rounded=0;exitX=0.206;exitY=0.8;exitDx=0;exitDy=0;exitPerimeter=0;entryX=0.99;entryY=0.8;entryDx=0;entryDy=0;entryPerimeter=0;fontSize=11;spacing=2;arcSize=20;labelBorderColor=none;fillColor=#d80073;strokeColor=#A50040;startSize=6;endSize=6;jumpSize=6;strokeWidth=6;" edge="1" parent="1">
          <mxGeometry width="50" height="50" relative="1" as="geometry">
            <mxPoint x="1349.0159999999996" y="1259" as="sourcePoint" />
            <mxPoint x="927.755" y="917" as="targetPoint" />
          </mxGeometry>
        </mxCell>
        <mxCell id="lmE3nsjhsvZmALT3HOkS-157" value="" style="endArrow=none;dashed=1;html=1;rounded=0;exitX=0.188;exitY=0.071;exitDx=0;exitDy=0;exitPerimeter=0;entryX=0.99;entryY=0.8;entryDx=0;entryDy=0;entryPerimeter=0;fontSize=11;spacing=2;arcSize=20;labelBorderColor=none;fillColor=#008a00;strokeColor=#005700;startSize=6;endSize=6;jumpSize=6;strokeWidth=6;" edge="1" parent="1" source="48ef80bc37b76060-124">
          <mxGeometry width="50" height="50" relative="1" as="geometry">
            <mxPoint x="1073.19" y="1295" as="sourcePoint" />
            <mxPoint x="1094.185" y="912" as="targetPoint" />
          </mxGeometry>
        </mxCell>
        <mxCell id="lmE3nsjhsvZmALT3HOkS-158" value="" style="endArrow=none;dashed=1;html=1;rounded=0;exitX=1.294;exitY=0.034;exitDx=0;exitDy=0;exitPerimeter=0;fontSize=11;spacing=2;arcSize=20;labelBorderColor=none;fillColor=#008a00;strokeColor=#005700;startSize=6;endSize=6;jumpSize=6;strokeWidth=6;" edge="1" parent="1" source="48ef80bc37b76060-142">
          <mxGeometry width="50" height="50" relative="1" as="geometry">
            <mxPoint x="596.9950000000001" y="842" as="sourcePoint" />
            <mxPoint x="950" y="760" as="targetPoint" />
          </mxGeometry>
        </mxCell>
        <mxCell id="lmE3nsjhsvZmALT3HOkS-159" value="" style="endArrow=none;dashed=1;html=1;rounded=0;exitX=-0.094;exitY=0.029;exitDx=0;exitDy=0;exitPerimeter=0;entryX=0.99;entryY=0.8;entryDx=0;entryDy=0;entryPerimeter=0;fontSize=11;spacing=2;arcSize=20;labelBorderColor=none;fillColor=#0050ef;strokeColor=#001DBC;startSize=6;endSize=6;jumpSize=6;strokeWidth=6;" edge="1" parent="1" source="48ef80bc37b76060-261">
          <mxGeometry width="50" height="50" relative="1" as="geometry">
            <mxPoint x="553" y="751" as="sourcePoint" />
            <mxPoint x="573.995" y="368" as="targetPoint" />
          </mxGeometry>
        </mxCell>
        <mxCell id="lmE3nsjhsvZmALT3HOkS-160" value="" style="endArrow=none;dashed=1;html=1;rounded=0;exitX=0.757;exitY=-0.5;exitDx=0;exitDy=0;exitPerimeter=0;entryX=1;entryY=1;entryDx=0;entryDy=0;fontSize=11;spacing=2;arcSize=20;labelBorderColor=none;fillColor=#0050ef;strokeColor=#001DBC;startSize=6;endSize=6;jumpSize=6;strokeWidth=6;" edge="1" parent="1" target="48ef80bc37b76060-65">
          <mxGeometry width="50" height="50" relative="1" as="geometry">
            <mxPoint x="575" y="373" as="sourcePoint" />
            <mxPoint x="595.995" y="-10" as="targetPoint" />
          </mxGeometry>
        </mxCell>
        <mxCell id="lmE3nsjhsvZmALT3HOkS-161" value="" style="endArrow=none;dashed=1;html=1;rounded=0;exitX=0.55;exitY=0.475;exitDx=0;exitDy=0;exitPerimeter=0;entryX=0.029;entryY=1.1;entryDx=0;entryDy=0;entryPerimeter=0;fontSize=11;spacing=2;arcSize=20;labelBorderColor=none;fillColor=#d80073;strokeColor=#6647FF;startSize=6;endSize=6;jumpSize=6;strokeWidth=6;" edge="1" parent="1" source="lmE3nsjhsvZmALT3HOkS-136" target="48ef80bc37b76060-327">
          <mxGeometry width="50" height="50" relative="1" as="geometry">
            <mxPoint x="619.01" y="281" as="sourcePoint" />
            <mxPoint x="640.0049999999999" y="-102" as="targetPoint" />
          </mxGeometry>
        </mxCell>
        <mxCell id="lmE3nsjhsvZmALT3HOkS-162" value="" style="endArrow=none;dashed=1;html=1;rounded=0;exitX=0.842;exitY=-0.1;exitDx=0;exitDy=0;exitPerimeter=0;entryX=0.99;entryY=0.8;entryDx=0;entryDy=0;entryPerimeter=0;fontSize=11;spacing=2;arcSize=20;labelBorderColor=none;fillColor=#d80073;strokeColor=#6647FF;startSize=6;endSize=6;jumpSize=6;strokeWidth=6;" edge="1" parent="1" source="48ef80bc37b76060-260">
          <mxGeometry width="50" height="50" relative="1" as="geometry">
            <mxPoint x="600" y="650" as="sourcePoint" />
            <mxPoint x="620.995" y="267" as="targetPoint" />
          </mxGeometry>
        </mxCell>
        <mxCell id="lmE3nsjhsvZmALT3HOkS-163" value="" style="endArrow=none;dashed=1;html=1;rounded=0;exitX=0.757;exitY=-0.5;exitDx=0;exitDy=0;exitPerimeter=0;entryX=0.012;entryY=0.3;entryDx=0;entryDy=0;entryPerimeter=0;fontSize=11;spacing=2;arcSize=20;labelBorderColor=none;fillColor=#d80073;strokeColor=#FF961E;startSize=6;endSize=6;jumpSize=6;strokeWidth=6;" edge="1" parent="1" target="48ef80bc37b76060-327">
          <mxGeometry width="50" height="50" relative="1" as="geometry">
            <mxPoint x="1247.5" y="464.5" as="sourcePoint" />
            <mxPoint x="1268.495" y="81.5" as="targetPoint" />
          </mxGeometry>
        </mxCell>
        <mxCell id="lmE3nsjhsvZmALT3HOkS-164" value="" style="endArrow=none;dashed=1;html=1;rounded=0;exitX=0.757;exitY=-0.5;exitDx=0;exitDy=0;exitPerimeter=0;entryX=1.05;entryY=0.094;entryDx=0;entryDy=0;entryPerimeter=0;fontSize=11;spacing=2;arcSize=20;labelBorderColor=none;fillColor=#d80073;strokeColor=#FF961E;startSize=6;endSize=6;jumpSize=6;strokeWidth=6;" edge="1" parent="1" target="48ef80bc37b76060-325">
          <mxGeometry width="50" height="50" relative="1" as="geometry">
            <mxPoint x="1247.5" y="464.5" as="sourcePoint" />
            <mxPoint x="1268.495" y="81.5" as="targetPoint" />
          </mxGeometry>
        </mxCell>
        <mxCell id="lmE3nsjhsvZmALT3HOkS-165" value="" style="endArrow=none;dashed=1;html=1;rounded=0;exitX=0.757;exitY=-0.5;exitDx=0;exitDy=0;exitPerimeter=0;fontSize=11;spacing=2;arcSize=20;labelBorderColor=none;fillColor=#e3c800;strokeColor=#B09500;startSize=6;endSize=6;jumpSize=6;strokeWidth=6;entryX=0.118;entryY=0.024;entryDx=0;entryDy=0;entryPerimeter=0;" edge="1" parent="1" target="48ef80bc37b76060-142">
          <mxGeometry width="50" height="50" relative="1" as="geometry">
            <mxPoint x="570.01" y="1002" as="sourcePoint" />
            <mxPoint x="592" y="800" as="targetPoint" />
          </mxGeometry>
        </mxCell>
        <mxCell id="lmE3nsjhsvZmALT3HOkS-166" value="" style="endArrow=none;dashed=1;html=1;rounded=0;exitX=0.757;exitY=-0.5;exitDx=0;exitDy=0;exitPerimeter=0;entryX=0.029;entryY=-0.4;entryDx=0;entryDy=0;entryPerimeter=0;fontSize=11;spacing=2;arcSize=20;labelBorderColor=none;fillColor=#e3c800;strokeColor=#B09500;startSize=6;endSize=6;jumpSize=6;strokeWidth=6;" edge="1" parent="1" target="48ef80bc37b76060-137">
          <mxGeometry width="50" height="50" relative="1" as="geometry">
            <mxPoint x="570.01" y="1002" as="sourcePoint" />
            <mxPoint x="591.005" y="619" as="targetPoint" />
          </mxGeometry>
        </mxCell>
        <mxCell id="lmE3nsjhsvZmALT3HOkS-167" value="" style="endArrow=none;dashed=1;html=1;rounded=0;exitX=0.757;exitY=-0.5;exitDx=0;exitDy=0;exitPerimeter=0;entryX=0.992;entryY=0.838;entryDx=0;entryDy=0;entryPerimeter=0;fontSize=11;spacing=2;arcSize=20;labelBorderColor=none;fillColor=#a0522d;strokeColor=#6D1F00;startSize=6;endSize=6;jumpSize=6;strokeWidth=6;" edge="1" parent="1" target="48ef80bc37b76060-128">
          <mxGeometry width="50" height="50" relative="1" as="geometry">
            <mxPoint x="622.01" y="1284" as="sourcePoint" />
            <mxPoint x="643.005" y="901" as="targetPoint" />
          </mxGeometry>
        </mxCell>
        <mxCell id="lmE3nsjhsvZmALT3HOkS-168" value="" style="endArrow=none;dashed=1;html=1;rounded=0;exitX=0.757;exitY=-0.5;exitDx=0;exitDy=0;exitPerimeter=0;entryX=-0.005;entryY=0.8;entryDx=0;entryDy=0;entryPerimeter=0;fontSize=11;spacing=2;arcSize=20;labelBorderColor=none;fillColor=#a0522d;strokeColor=#6D1F00;startSize=6;endSize=6;jumpSize=6;strokeWidth=6;" edge="1" parent="1">
          <mxGeometry width="50" height="50" relative="1" as="geometry">
            <mxPoint x="622.01" y="1281" as="sourcePoint" />
            <mxPoint x="782" y="1253.045" as="targetPoint" />
          </mxGeometry>
        </mxCell>
        <mxCell id="lmE3nsjhsvZmALT3HOkS-169" value="" style="endArrow=none;dashed=1;html=1;rounded=0;exitX=0.757;exitY=-0.5;exitDx=0;exitDy=0;exitPerimeter=0;entryX=0.005;entryY=0.2;entryDx=0;entryDy=0;entryPerimeter=0;fontSize=11;spacing=2;arcSize=20;labelBorderColor=none;fillColor=#d80073;strokeColor=#33FFFF;startSize=6;endSize=6;jumpSize=6;strokeWidth=6;" edge="1" parent="1" target="48ef80bc37b76060-157">
          <mxGeometry width="50" height="50" relative="1" as="geometry">
            <mxPoint x="809.01" y="1418" as="sourcePoint" />
            <mxPoint x="830.005" y="1035" as="targetPoint" />
          </mxGeometry>
        </mxCell>
        <mxCell id="lmE3nsjhsvZmALT3HOkS-170" value="" style="endArrow=none;dashed=1;html=1;rounded=0;exitX=0.757;exitY=-0.5;exitDx=0;exitDy=0;exitPerimeter=0;entryX=0.969;entryY=1.1;entryDx=0;entryDy=0;entryPerimeter=0;fontSize=11;spacing=2;arcSize=20;labelBorderColor=none;fillColor=#d80073;strokeColor=light-dark(#33ffff, #ffa9e0);startSize=6;endSize=6;jumpSize=6;strokeWidth=6;" edge="1" parent="1" target="48ef80bc37b76060-162">
          <mxGeometry width="50" height="50" relative="1" as="geometry">
            <mxPoint x="809.01" y="1417" as="sourcePoint" />
            <mxPoint x="830.0049999999999" y="1034" as="targetPoint" />
          </mxGeometry>
        </mxCell>
        <mxCell id="lmE3nsjhsvZmALT3HOkS-171" value="" style="endArrow=none;dashed=1;html=1;rounded=0;exitX=0.757;exitY=-0.5;exitDx=0;exitDy=0;exitPerimeter=0;entryX=0.917;entryY=0.8;entryDx=0;entryDy=0;entryPerimeter=0;fontSize=11;spacing=2;arcSize=20;labelBorderColor=none;fillColor=#d80073;strokeColor=light-dark(#fbff05, #ffa9e0);startSize=6;endSize=6;jumpSize=6;strokeWidth=6;" edge="1" parent="1" target="48ef80bc37b76060-163">
          <mxGeometry width="50" height="50" relative="1" as="geometry">
            <mxPoint x="1034" y="1424" as="sourcePoint" />
            <mxPoint x="1054.995" y="1041" as="targetPoint" />
          </mxGeometry>
        </mxCell>
        <mxCell id="lmE3nsjhsvZmALT3HOkS-172" value="" style="endArrow=none;dashed=1;html=1;rounded=0;exitX=0.757;exitY=-0.5;exitDx=0;exitDy=0;exitPerimeter=0;entryX=0.932;entryY=0.8;entryDx=0;entryDy=0;entryPerimeter=0;fontSize=11;spacing=2;arcSize=20;labelBorderColor=none;fillColor=#d80073;strokeColor=light-dark(#fbff05, #ffa9e0);startSize=6;endSize=6;jumpSize=6;strokeWidth=6;" edge="1" parent="1" target="48ef80bc37b76060-169">
          <mxGeometry width="50" height="50" relative="1" as="geometry">
            <mxPoint x="1035.75" y="1424" as="sourcePoint" />
            <mxPoint x="1056.745" y="1041" as="targetPoint" />
          </mxGeometry>
        </mxCell>
        <mxCell id="lmE3nsjhsvZmALT3HOkS-173" value="" style="endArrow=none;dashed=1;html=1;rounded=0;exitX=0.757;exitY=-0.5;exitDx=0;exitDy=0;exitPerimeter=0;entryX=-0.01;entryY=0.2;entryDx=0;entryDy=0;entryPerimeter=0;fontSize=11;spacing=2;arcSize=20;labelBorderColor=none;fillColor=#d80073;strokeColor=#FF00FF;startSize=6;endSize=6;jumpSize=6;strokeWidth=6;" edge="1" parent="1" target="48ef80bc37b76060-169">
          <mxGeometry width="50" height="50" relative="1" as="geometry">
            <mxPoint x="1257.01" y="1417" as="sourcePoint" />
            <mxPoint x="1278.0049999999999" y="1034" as="targetPoint" />
          </mxGeometry>
        </mxCell>
        <mxCell id="lmE3nsjhsvZmALT3HOkS-174" value="" style="endArrow=none;dashed=1;html=1;rounded=0;exitX=0.757;exitY=-0.5;exitDx=0;exitDy=0;exitPerimeter=0;entryX=1;entryY=1;entryDx=0;entryDy=0;fontSize=11;spacing=2;arcSize=20;labelBorderColor=none;fillColor=#d80073;strokeColor=#FF00FF;startSize=6;endSize=6;jumpSize=6;strokeWidth=6;" edge="1" parent="1" target="48ef80bc37b76060-8">
          <mxGeometry width="50" height="50" relative="1" as="geometry">
            <mxPoint x="1257.01" y="1417" as="sourcePoint" />
            <mxPoint x="1278.0049999999999" y="1034" as="targetPoint" />
          </mxGeometry>
        </mxCell>
        <mxCell id="lmE3nsjhsvZmALT3HOkS-175" value="" style="endArrow=none;dashed=1;html=1;rounded=0;exitX=0.757;exitY=-0.5;exitDx=0;exitDy=0;exitPerimeter=0;entryX=0.938;entryY=0.004;entryDx=0;entryDy=0;fontSize=11;spacing=2;arcSize=20;labelBorderColor=none;fillColor=#d80073;strokeColor=#FFCCCC;startSize=6;endSize=6;jumpSize=6;strokeWidth=6;entryPerimeter=0;" edge="1" parent="1" target="48ef80bc37b76060-128">
          <mxGeometry width="50" height="50" relative="1" as="geometry">
            <mxPoint x="1572.01" y="1417" as="sourcePoint" />
            <mxPoint x="1593.0049999999999" y="1034" as="targetPoint" />
          </mxGeometry>
        </mxCell>
        <mxCell id="lmE3nsjhsvZmALT3HOkS-176" value="" style="endArrow=none;dashed=1;html=1;rounded=0;exitX=0.757;exitY=-0.5;exitDx=0;exitDy=0;exitPerimeter=0;entryX=0.651;entryY=1;entryDx=0;entryDy=0;entryPerimeter=0;fontSize=11;spacing=2;arcSize=20;labelBorderColor=none;fillColor=#d80073;strokeColor=#FFCCCC;startSize=6;endSize=6;jumpSize=6;strokeWidth=6;" edge="1" parent="1" target="lmE3nsjhsvZmALT3HOkS-62">
          <mxGeometry width="50" height="50" relative="1" as="geometry">
            <mxPoint x="1572.01" y="1417" as="sourcePoint" />
            <mxPoint x="1593.0049999999999" y="1034" as="targetPoint" />
          </mxGeometry>
        </mxCell>
        <mxCell id="lmE3nsjhsvZmALT3HOkS-177" value="" style="endArrow=none;dashed=1;html=1;rounded=0;exitX=0.757;exitY=-0.5;exitDx=0;exitDy=0;exitPerimeter=0;entryX=0.99;entryY=0.8;entryDx=0;entryDy=0;entryPerimeter=0;fontSize=11;spacing=2;arcSize=20;labelBorderColor=none;fillColor=#d80073;strokeColor=#67AB9F;startSize=6;endSize=6;jumpSize=6;strokeWidth=6;" edge="1" parent="1">
          <mxGeometry width="50" height="50" relative="1" as="geometry">
            <mxPoint x="1659.01" y="630" as="sourcePoint" />
            <mxPoint x="1680.0049999999999" y="247" as="targetPoint" />
          </mxGeometry>
        </mxCell>
        <mxCell id="lmE3nsjhsvZmALT3HOkS-178" value="" style="endArrow=none;dashed=1;html=1;rounded=0;exitX=0.757;exitY=-0.5;exitDx=0;exitDy=0;exitPerimeter=0;fontSize=11;spacing=2;arcSize=20;labelBorderColor=none;fillColor=#d80073;strokeColor=#67AB9F;startSize=6;endSize=6;jumpSize=6;strokeWidth=6;entryX=0;entryY=0.012;entryDx=0;entryDy=0;entryPerimeter=0;" edge="1" parent="1" target="48ef80bc37b76060-316">
          <mxGeometry width="50" height="50" relative="1" as="geometry">
            <mxPoint x="1660" y="630" as="sourcePoint" />
            <mxPoint x="1610" y="247" as="targetPoint" />
          </mxGeometry>
        </mxCell>
        <mxCell id="lmE3nsjhsvZmALT3HOkS-179" value="" style="endArrow=none;dashed=1;html=1;rounded=0;fontSize=11;spacing=2;arcSize=20;labelBorderColor=none;fillColor=#1ba1e2;strokeColor=#006EAF;startSize=6;endSize=6;jumpSize=6;strokeWidth=6;exitX=0.986;exitY=0;exitDx=0;exitDy=0;exitPerimeter=0;" edge="1" parent="1">
          <mxGeometry width="50" height="50" relative="1" as="geometry">
            <mxPoint x="1344" y="1014.15" as="sourcePoint" />
            <mxPoint x="1090" y="760" as="targetPoint" />
          </mxGeometry>
        </mxCell>
        <mxCell id="lmE3nsjhsvZmALT3HOkS-180" value="" style="endArrow=none;dashed=1;html=1;rounded=0;fontSize=11;spacing=2;arcSize=20;labelBorderColor=none;fillColor=#1ba1e2;strokeColor=#006EAF;startSize=6;endSize=6;jumpSize=6;strokeWidth=6;exitX=0.986;exitY=0;exitDx=0;exitDy=0;exitPerimeter=0;entryX=0.972;entryY=1.4;entryDx=0;entryDy=0;entryPerimeter=0;" edge="1" parent="1" target="lmE3nsjhsvZmALT3HOkS-66">
          <mxGeometry width="50" height="50" relative="1" as="geometry">
            <mxPoint x="1344" y="1015" as="sourcePoint" />
            <mxPoint x="1453" y="439.69000000000005" as="targetPoint" />
          </mxGeometry>
        </mxCell>
        <mxCell id="lmE3nsjhsvZmALT3HOkS-181" value="" style="endArrow=none;dashed=1;html=1;rounded=0;fontSize=11;spacing=2;arcSize=20;labelBorderColor=none;fillColor=#1ba1e2;strokeColor=#006EAF;startSize=6;endSize=6;jumpSize=6;strokeWidth=6;" edge="1" parent="1">
          <mxGeometry width="50" height="50" relative="1" as="geometry">
            <mxPoint x="1100" y="913" as="sourcePoint" />
            <mxPoint x="1346" y="1010" as="targetPoint" />
          </mxGeometry>
        </mxCell>
        <mxCell id="lmE3nsjhsvZmALT3HOkS-182" value="" style="endArrow=none;dashed=1;html=1;rounded=0;fontSize=11;spacing=2;arcSize=20;labelBorderColor=none;fillColor=#d80073;strokeColor=light-dark(#919191,#FFA9E0);startSize=6;endSize=6;jumpSize=6;strokeWidth=6;entryX=0.054;entryY=0.013;entryDx=0;entryDy=0;entryPerimeter=0;" edge="1" parent="1">
          <mxGeometry width="50" height="50" relative="1" as="geometry">
            <mxPoint x="300" y="730" as="sourcePoint" />
            <mxPoint x="375.99" y="780" as="targetPoint" />
          </mxGeometry>
        </mxCell>
        <mxCell id="lmE3nsjhsvZmALT3HOkS-183" value="" style="endArrow=none;dashed=1;html=1;rounded=0;fontSize=11;spacing=2;arcSize=20;labelBorderColor=none;fillColor=#d80073;strokeColor=#919191;startSize=6;endSize=6;jumpSize=6;strokeWidth=6;entryX=0.054;entryY=0.013;entryDx=0;entryDy=0;entryPerimeter=0;exitX=0.234;exitY=0.176;exitDx=0;exitDy=0;exitPerimeter=0;" edge="1" parent="1" source="lmE3nsjhsvZmALT3HOkS-118">
          <mxGeometry width="50" height="50" relative="1" as="geometry">
            <mxPoint x="310" y="800" as="sourcePoint" />
            <mxPoint x="375.99" y="780" as="targetPoint" />
          </mxGeometry>
        </mxCell>
      </root>
    </mxGraphModel>
  </diagram>
</mxfile>
